<?xml version="1.0" standalone="no"?>
<!DOCTYPE svg PUBLIC "-//W3C//DTD SVG 1.1//EN" "http://www.w3.org/Graphics/SVG/1.1/DTD/svg11.dtd" >
<svg xmlns="http://www.w3.org/2000/svg">
<metadata></metadata>
<defs>
<font id="old_stamperregular" horiz-adv-x="666" >
<font-face units-per-em="2048" ascent="1638" descent="-410" />
<missing-glyph horiz-adv-x="1416" />
<glyph horiz-adv-x="2048" />
<glyph horiz-adv-x="2048" />
<glyph unicode="&#xd;" horiz-adv-x="508" />
<glyph unicode=" " horiz-adv-x="1416" d="M759 1692h12v23l46 -11h12l11 11l151 -23h23l23 23l232 -11q173 0 173 -93l-46 -35l-162 24l-58 -12l-12 12l-104 -24l-370 24v-12h-24l-11 12l-47 -12l-81 12l-324 -24l-162 24h-70l-23 23v69l12 12q31 -23 150 -35q93 21 93 46q165 0 209 -46h23q0 58 312 58zM365 -251 q-35 0 -35 -23l-128 12l-58 -12q-208 16 -208 46v35l12 12l-12 11v23l35 12l243 -23l197 11l69 -11l47 23l46 -12h93l69 12l301 -35l24 23h11l46 -11l47 11h35q243 0 243 -34v-81l-23 -24h-12l-93 47q-38 0 -81 -35h-11l-35 23h-23q-23 -23 -151 -35l-92 24l-70 -12l-208 58 v-23q0 -58 -128 -58q0 38 -150 46z" />
<glyph unicode="!" horiz-adv-x="539" d="M542 1731l23 -35v-81l-23 -23l-47 12l-46 -23l-81 11h-81l-57 -11q-255 18 -255 46v35q0 51 231 57l47 -23zM224 1456q78 -34 139 -115v-12l-23 -23h-58q0 -58 -104 -58v-11q58 -49 58 -81h11q0 46 69 46l35 12q0 57 46 57l12 -11v-116q0 -93 -139 -439v-46l12 -69 q-29 -90 -70 -104h-23q-81 24 -92 335q-104 139 -104 393q29 127 69 127q0 80 162 115zM132 428q80 -16 80 -35l12 12h23q93 0 139 -116q46 -19 46 -81v-11q0 -78 -220 -197h-23q-196 55 -196 174q61 254 139 254zM155 -139h46l35 -23h104l23 23l57 -11l116 11l35 -58v-80 h-23v-12l-312 23l-228 -23l-46 35q0 55 81 57l31 35v12z" />
<glyph unicode="&#x22;" horiz-adv-x="699" d="M290 1719l23 -23h69l312 -12l35 35l23 -23v-81l-23 -23h-139l-46 11l-46 -11h-46l-46 11l-104 -23l-58 23l-81 -23l-127 12h-35l-23 23v92h23l23 -23zM521 1522h12q34 0 46 -138q-58 -15 -58 -35q49 0 69 -242l-11 -81l11 -81q0 -38 -92 -93q-74 0 -92 208l46 12v11 l-46 58v23l11 12v11h-46v185q40 150 150 150zM174 1499l47 -46v-92l34 -174q-81 -116 -81 -219l12 -69q-19 -58 -69 -58l-81 115l11 116v35l-46 173q0 104 116 173zM204 -136l127 -34q0 23 127 34l11 -11h12l11 11h35v-11l116 11h92l23 -23v-81q0 -23 -115 -34v-12l-139 12 h-92l-104 -12l-35 23l-81 -11h-69q-169 -18 -148 105l78 -1l23 23l58 -12z" />
<glyph unicode="#" horiz-adv-x="1201" d="M526 1740q34 -32 668 -46l23 23h23v-104l-23 -23l-81 12l-92 -12l-69 12l-127 -12l-207 12l-162 -23l-11 11v12l-173 -12h-57l-47 12l-46 -12h-69l-46 12l-34 -12l-12 12v80l115 12h92l35 23zM295 1648h138q49 34 93 34v12h-81q-150 -8 -150 -46zM897 1447l92 -23v-34 l-35 -69l12 -69l-58 -139q63 -46 116 -46l69 35h23v-12l-12 -46l12 -11v-12l-12 -46l12 -12v-11l-35 -127l-138 12h-115q7 -208 23 -208l34 -23l58 35l23 -23l-35 -127l12 -58h-46v-23l11 -11v-12l-11 -11l-115 23l-46 -23l11 -81l-58 -115q-53 -196 -92 -196q-69 16 -69 58 q51 242 69 242l23 23v69h-11l-208 11q-80 -16 -80 -115l11 -46l-11 -81l11 -34q-23 0 -57 -115h-23l-81 11l11 138l-11 35l46 23l12 150l-24 34l-34 -11l-173 34q37 173 115 173l35 -11q271 0 311 46l23 -23l127 34h46v12l23 184l-150 12l-58 -23v-23l12 -58 q-61 -81 -127 -81l-11 -11h-23l-23 23q37 0 46 150h-69q-91 0 -139 57v35q35 48 35 115l-12 35l104 57q39 0 81 -34h34q70 92 92 92v11q-34 0 -34 35l69 104l-11 69q0 23 115 46l11 -12h12l-92 -311q34 0 34 -46h12q0 35 23 35h34l35 -35q104 0 104 92l23 104l-12 12v11 q0 68 81 115q0 46 23 46zM444 -149h104l23 -23l-46 -46v-23h46q35 0 127 57q58 0 58 23l219 -23q0 19 80 35l58 -12l46 12l69 -12v-103q0 -23 -35 -23l-57 11l-104 -11l-57 11l-150 -23l-46 23l-127 -11h-35l-46 11l-46 -11l-11 34h-47l-46 -34h-34l-35 11l-57 -11h-185 l-46 11l-46 -11h-23l-23 23v69l23 23h265l104 11l57 -11z" />
<glyph unicode="$" horiz-adv-x="971" d="M141 1722l70 -12l153 12l130 -24l70 24q0 -94 153 -94l248 12l11 35h36v-71l-12 -11v-12l-47 12l-83 -12l-47 12l-129 -12h-118l-70 12l-12 -12h-12l-176 12l-95 -12l-11 12h-12l-12 -12l-82 12h-12l-94 -24l-12 12v82q0 20 165 59zM694 1722h129v-24h-129v24zM417 1442 h24q0 -125 141 -164h12l35 11q165 -107 165 -294q-58 -82 -130 -82h-35q-112 0 -129 188l35 12v47l-59 59h-12l-23 -24l23 -188l-11 -12h-71l-24 24l12 47l-23 129h-36q-38 0 -47 -153q7 -27 306 -200l118 -47q0 -24 129 -153l24 -129l-12 -12l12 -59v-59 q-86 -106 -130 -106v-23l12 -59q-266 -95 -270 -118l11 -59v-11q-11 -36 -70 -36h-36v12l12 94h-12q-353 87 -353 236v94q36 0 36 -47h11q200 0 200 82h12l36 -35q0 -118 -95 -165v-24h12l83 -47h35l12 12h11l-11 82v118q0 19 82 59h12l23 -24l-23 -153v-35q12 -35 70 -35 h24l47 176v12l-94 106q70 12 70 59q71 0 71 59q-47 0 -47 59h-24q0 -59 -129 -59q0 -83 -106 -83l-247 224q-71 164 -71 235q266 318 295 318l35 -23h23v11l-23 94zM64 854l47 -94h12q42 47 106 47v70l23 36v11h-70q-34 0 -118 -70zM182 536q0 -23 35 -23v-24h-106v24z M400 -140h153q100 -94 129 -94l12 12l59 -12h47q23 23 153 35v12l-141 12q-8 -36 -95 -36l-35 36q0 23 35 23l36 -12l141 24q118 -12 118 -35v-71q0 -35 -247 -35h-48l-47 12l-47 -12h-82l-130 12l-47 -24l-153 24l-200 -12l-29 3l-9 50l344 53q3 23 83 35z" />
<glyph unicode="%" horiz-adv-x="1640" d="M1443 1730l35 -35h11l104 12l35 -12l46 12l11 -12v-80q0 -24 -92 -35l-196 11l-231 -11l-196 11l-47 -11l-11 11h-12l-92 -11l-81 23l-46 -23l-58 11l-104 -11l-92 11l-58 -11l-11 11h-12l-46 -11l-127 11l-127 -11l-12 11h-11l-35 -11l-23 81l185 46h150l46 11 q96 -23 346 -23l47 12l57 -12l46 12l104 -12h208l-11 12v11h46l58 -11zM1166 1695v-11h46v11h-46zM473 1441q230 0 277 -334v-35q-111 -254 -300 -254h-12l-23 23v35q50 0 127 57q78 0 104 58h-150l-23 23v127q0 166 -81 208v23zM334 1418h35v-11l-104 -127l-11 -58l34 -127 l-11 -127l11 -35l-46 -11v-46h35l81 11l11 -11v-35l-11 -12v-11q-51 1 -116 46h-115q-116 93 -116 254q-23 0 -23 92l196 185zM1097 1418l34 -34q-81 -90 -104 -208h-69l-12 11h-11q40 208 138 208zM912 1164h11v-34l-34 -12l-12 12v11zM993 1130h11v-12q-58 -92 -150 -358 q-58 -22 -58 -104q-31 -13 -81 -104q-46 0 -46 -34l-11 -12h-93q0 81 93 150q57 85 57 208q124 0 185 162q0 46 58 46q3 58 35 58zM877 1095v-12l-23 -23l-23 23l11 12h35zM1247 645q115 -34 115 -127l35 23h11q20 0 58 -70q46 0 46 -80l-34 -150l11 -12v-12 q-39 -91 -219 -230l-127 23v11q69 165 69 220l-12 34l12 58q0 63 -69 242l81 47zM1120 622v-35q-35 -58 -93 -58v-11q12 -127 35 -127l-12 -116v-150l58 -69v-35l-11 -11v-12l-174 46l-11 -11h-12q-67 0 -127 150l12 11v12l-23 219q32 0 184 150zM658 460v-12 q0 -40 -116 -254q-11 -133 -46 -173l-69 12l-81 -12l-12 12v11q116 231 197 289q0 83 127 127zM1484 -144l92 -23l92 11l23 -35l-11 -11v-12l11 -46q0 -26 -57 -34l-47 11l-92 -11l-46 11l-243 -23l-46 23l-81 -11h-34l-93 23l-92 -23l-104 11l-35 -11l-127 11h-92l-104 -11 l-81 11l-34 -11l-12 11l-58 -11l-69 11v23q72 0 116 58q76 0 115 46h12l46 -11l34 11l35 -11l104 11h23l46 -23l127 12l93 -12l69 12l58 -12l46 12l35 -12l161 12l116 -24q63 4 104 47zM156 -156v-23l-93 -92h-46q-34 0 -46 92z" />
<glyph unicode="&#x26;" horiz-adv-x="1470" d="M1263 1728l58 -12h69l46 12q70 -15 70 -35v-81l-23 -23l-47 12l-46 -12l-46 12l-127 -23l-81 11l-81 -11l-104 23l-128 -23l-46 11l-116 -11l-11 11h-12l-11 -11h-12l-277 11h-24l-185 -11l-57 11l-35 -11q-70 15 -70 34v35q1 18 128 69h185v-23l-58 -11v-12l35 -35h57 l116 47q116 23 544 23l34 11l47 -23l162 12h23zM763 1441l23 -35v-69q-23 -46 -69 -46v-58q0 -173 173 -347l151 -324l-12 -35h12q43 0 127 -196l104 -197q81 -34 81 -104l-12 -12h-11l-81 12l-151 -23l-127 46l-104 -35q-60 0 -150 220l-174 301v11l58 12l-81 69l23 35 q-92 0 -92 104q-151 155 -151 324l35 23h197q66 0 115 58q47 0 47 23v35q-79 0 -162 -58l-116 -12h-23l-35 35q40 116 139 116q107 115 243 115l11 12h12zM902 1429h11l47 -46l-24 -23h-46l-23 23zM1017 1337l35 -46l-11 -35l11 -127v-35q-50 -162 -92 -162h-24l-34 116 q46 0 46 150v23q-46 0 -69 46v35h115q0 35 23 35zM1202 909h12q81 -72 81 -174l-139 -231l-58 104l24 81l-12 58l12 35q-47 17 -47 34zM335 770l46 -69l-11 -47q54 -197 115 -323q0 -35 93 -139q65 0 139 -116v-35l-266 -57l-12 34h-92l-81 -11l-93 92l-58 -11l-69 162 q-46 40 -46 115q0 148 231 347h23q0 58 81 58zM312 654q0 -49 -70 -69v-23l24 -58h34q0 46 47 46v104h-35zM867 573v-57l23 -23h58v11q-58 0 -58 69h-23zM28 -155l23 -23l-11 -12h-53l-23 23l12 12h52zM826 -155h58l35 -46q157 11 185 34l69 -11h23v23h24l46 -35h46v12h-35 v23l116 -12h46l58 12l12 -12v-92q0 -26 -127 -35l-105 12l-34 -12l-58 23l-197 -23l-69 12l-174 -12l-243 12l-173 -12l-93 12l-69 -12l-12 12h-11l-104 -12l-64 -3v70l75 -21q67 0 116 58l69 12l58 -12l255 23l185 -11z" />
<glyph unicode="'" horiz-adv-x="346" d="M355 1728h11l23 -23v-69l-57 -46l-138 12h-58l-152 -12l-12 12v68q0 18 152 50l196 -15zM148 1423h11q31 0 69 -161q-76 -402 -115 -402q-34 0 -91 253l-12 11l-11 35q0 157 149 264zM357 -150l23 -23v-80q-7 -35 -92 -35l-92 12l-69 -12l-68 12l-69 -12l-12 12v11 l-26 104h313v-23h-23v-23q22 -42 69 -58l35 12v11l-12 81l12 11h11z" />
<glyph unicode="(" horiz-adv-x="675" d="M398 1724q137 0 137 -57l35 23l11 -12h12l115 23v-103l-23 -23h-58l-46 11l-46 -11l-137 23l-69 -23l-92 11l-58 -11l-69 11l-80 -11l-61 34l11 12l-11 57v23h11l50 -11l23 23l149 -23h58q126 0 138 34zM547 1437l23 -23v-12q-72 -71 -207 -298q-65 -74 -126 -414v-11 q66 -380 149 -380q30 -147 115 -218l-12 -34l35 -35l-12 -11h-68l-253 241l-138 207v80l-46 161l11 12v11l-11 46q0 80 57 80l-11 12v34q38 207 103 207q35 0 35 46q80 138 184 138zM-8 -141l173 -23h92l34 23q115 -14 115 -57h12q0 34 23 34l45 -23q69 12 69 35l58 -12 l80 12l12 -12v-92q0 -34 -173 -34l-46 23l-57 -23l-11 11h-12l-11 -11h-12l-172 23l-219 -23l12 57h-12l-22 23v46z" />
<glyph unicode=")" d="M548 1725l23 -23h46l79 12l12 -12v-79q0 -23 -34 -23l-205 -12l-160 12l-45 -12l-57 23l-57 -11h-159l-23 23v34q0 31 137 57l45 -12zM22 1444h11q93 0 194 -114l-12 -12v-11q81 -16 126 -91q0 -23 68 -34q0 -63 125 -307l23 -137l-12 -11v-12l23 -79 q-140 -461 -455 -638h-91l-23 23v23q0 24 91 57q103 93 103 159q113 127 113 398q35 41 35 114q-74 242 -114 273l34 69v11q-43 0 -159 171l-103 113v12zM290 -137l113 -34l92 23l34 -23h125l34 23l23 -23v-79q0 -35 -239 -46l-80 11l-11 -11h-12l-68 23h-57l-68 -23l-91 11 l-68 -11l-46 34q0 85 182 114h11l46 -11z" />
<glyph unicode="+" horiz-adv-x="953" d="M87 1722l12 -11h11l11 11l57 -11l354 -23l68 23l23 -23h23l125 23l23 -23l137 23l102 -12v-114h-159l-171 12l-194 -12h-171l-160 -11l-91 23l-91 -12l-23 23v11q0 23 57 23l-45 12v22q57 46 102 46zM53 1654v-12l57 -11h57l91 34v11h-137zM317 1163q80 0 80 -46l57 12 q114 -9 114 -35l-23 -102l11 -68l-11 -114q0 -69 91 -69q80 0 80 23q171 0 171 -91l11 -91q-64 -57 -194 -57l-91 22h-68l11 -79v-12l-23 -194l12 -114l-12 -11v-11l-159 22l-34 -11l-23 34l23 91v57l-23 183v45q-46 0 -46 35l-171 -23v11q15 46 137 46l12 11q45 0 45 46 q46 0 46 57l11 11l46 57h11q0 69 -57 69v-57l12 -12v-11l-12 -12h-11l-23 23l11 57l-34 114v12l34 45v11l-22 23l11 57v46zM214 764h46v-23q-14 -60 -217 -137h-22l-23 23v91q0 27 216 46zM932 -136q103 -12 103 -35v-79q0 -32 -103 -46l-182 23l-91 -12l-114 12l-69 -23 l-159 11h-34q-23 0 -23 35h-46l-45 -35h-126q-59 0 -68 35v34q0 19 160 57l34 -12l45 23l69 -11h34v-23l-57 -23v-11l23 -23h34q155 68 273 68q0 23 35 23l91 -34z" />
<glyph unicode="," horiz-adv-x="517" d="M518 1729l22 -22l23 22l34 -34v-79q-8 -33 -91 -33h-101l-45 10l-45 -10h-45l-46 10l-11 -10h-11l-181 22l-33 -12l-12 12v57l113 55l68 -22l124 12l79 -23zM407 -182q124 12 147 34h11l23 -22v-91l-23 -22h-169l-102 11l-11 -11l-56 11l-248 -11l-12 11v56q25 26 53 52 l128 5zM3 -119q28 28 37 54q113 0 215 125q0 59 -34 67l-57 -34q-137 0 -169 226q82 0 136 135h11l22 -22q24 0 24 34l11 11h34l34 -23l33 23h22q0 -49 114 -181v-33q-62 -328 -227 -349l-70 -31z" />
<glyph unicode="-" d="M187 1731h46q67 0 67 -79q42 57 68 57l46 -23l57 23l170 -23l22 23h34v-80q0 -33 -125 -33l-34 10l-67 -10h-12l-56 10l-69 -10h-34l-57 10l-67 -10h-182q-23 0 -23 33l12 11v12l-12 34l91 23l91 -12h11q0 34 23 34zM368 835h35q59 -79 125 -79l34 -114q0 -65 -125 -79 h-23l-114 22l-67 -11l-115 11h-10l-91 -22l-12 11v158q0 48 216 80l46 -34q49 0 101 57zM471 732v-10l11 -12l-11 -57v-22h22l12 57v44h-34zM321 -144l273 -11l11 11h11q68 -15 68 -34v-79l-22 -22h-46l-91 10l-67 -10l-46 10l-283 -22l-57 12l-11 -12h-12q-71 23 -79 57v11 q15 52 226 68l46 -23z" />
<glyph unicode="." horiz-adv-x="520" d="M-21 1707h129q22 0 22 -57l12 11h22l34 -23l80 46h69l102 11l34 -11l69 23v-115l-12 -11v-11l-34 11l-193 -11l-115 11l-68 -11l-68 11l-12 -11h-12q-56 15 -56 34v12zM152 383h46l35 -22l45 11q137 -68 137 -183q-18 -50 -171 -205q-251 86 -251 183l69 11l-24 34v23 q0 22 80 34l24 -148h56q46 18 46 80v22q-68 0 -114 69q-46 0 -46 23zM192 -143l103 -34l68 12l69 -12l57 23l57 -11v-92l-23 -22h-11l-125 -12l-149 12h-57l-45 -12l-92 22l-57 -10l-11 10v92l22 23h68z" />
<glyph unicode="/" horiz-adv-x="660" d="M-13 1731h10q174 -11 219 -34l104 12h10l47 -12l35 12l68 -12l46 12l81 -12l80 12v-93l-22 -22h-24l-34 11l-58 -11h-57l-35 11l-57 -11h-310l-46 -12l-11 12h-12l-34 -12l-12 12v11l22 92zM675 1490q0 -144 -114 -321q-58 -226 -184 -459l-11 -116l11 -34l-115 -207 q-46 -51 -46 -126l12 -46q-42 0 -81 -207l-46 -23q-104 38 -104 69l36 68l-12 47q80 89 80 138v92q81 85 81 126l34 34v115q14 92 70 92l-12 80v24q14 91 68 91v12q0 99 58 184q0 109 103 218l-11 57v12q0 68 91 68zM296 847v-35h24v12zM348 -159l115 -23l103 23l47 -12 l68 12v-92l-34 -34l-58 10l-34 -10l-58 10l-298 -10l-104 10l-114 -22l-12 12v92l218 22l93 -11z" />
<glyph unicode="0" horiz-adv-x="1262" d="M507 1734h81l24 -23l11 11h35l69 -23l116 23l24 -23l150 12l116 -12l58 12l58 -12l23 23l23 -23v-81l-23 -23h-81l-185 -12l-35 23l-81 -11h-429l-70 11l-58 -11h-139l-104 11l-93 -23l-23 35v70l243 34l24 -23l220 12h11zM504 1453q35 -43 35 -81l-81 -70l-23 -116 l11 -93l-11 -185l23 -162l-58 -128l35 -69l-12 -47q0 -255 81 -359l-46 -93l23 -46l-35 -12q-81 39 -127 105q-78 0 -255 243q0 82 -35 116l12 11v12l-47 139q25 81 70 81q-8 88 -70 174q118 371 197 371q64 151 244 151zM678 1441h104l128 -127l12 -81h34l35 23 q139 -137 139 -290l12 -12l-12 -69l47 -58l-24 -151l24 -104l-82 -162q0 -69 -115 -93q0 -35 -58 -35q-71 -70 -116 -70h-47l-35 24l12 34q-9 140 -23 140l11 57v93l24 232l-12 93q23 0 23 69q50 24 186 24h116v11l-35 12l-46 -12v23q0 16 92 47v23h-162q-107 0 -139 -47 h-23l-12 116l12 35q0 139 -93 139l-23 93zM133 1035l-23 -69l58 -58l58 12v58q0 23 81 23v11zM365 954q0 -34 -93 -34v-12h93l12 35v11h-12zM1084 317l11 -12q0 -47 -301 -266q0 -24 -116 -24h-81v35q127 58 174 58q0 52 116 58zM403 -127q23 -27 23 -81l46 35l12 -12h12 q0 20 81 35l11 -11l35 11l128 -11l69 11l58 -11l58 11q0 -23 35 -23l93 12l69 -12l70 12l46 -12l23 23l23 -23v-70q0 -23 -104 -34l-127 23l-139 -23l-82 11l-475 -23l-116 23l-69 -11l-12 11h-12l-69 -11h-81l-35 34q0 86 35 93l46 -35l93 35l127 -23q0 38 128 46z" />
<glyph unicode="1" horiz-adv-x="720" d="M549 1740h23q33 -35 93 -47l58 35l24 -23v-81q0 -31 -210 -47l-140 35q-45 -23 -128 -23l-35 11l-70 -11l-81 11l-108 -11l-12 11v82q0 23 97 35l81 -12l47 12l58 -24l233 35l46 -11zM118 1449h23q70 -70 175 -70l163 47h70v-117l-12 -46l12 -47l-35 -140l46 -140 l-11 -104v-12l23 -82l-23 -139l11 -70l-23 -93v-117q0 -118 93 -198v-11l-23 -70l-47 11l-139 -35h-24l-128 35l-244 -58l-12 12v70q99 81 140 81v93l-35 70l81 58v12q-81 0 -81 23v140l23 93v93l-35 47v12q0 105 117 105l81 11v35q0 70 -116 70h-59l12 116v35 q-35 31 -35 94q-116 14 -116 46q29 128 70 128l34 -23q24 0 24 35zM374 -135l105 -81l128 46l93 -12l23 24l24 -24v-81q-12 -35 -70 -35h-35l-70 12l-47 -12l-139 23l-70 -23l-82 12l-70 -12l-70 12l-108 -16q-23 28 -20 120l94 24l139 -24h70q35 0 105 47z" />
<glyph unicode="2" horiz-adv-x="1107" d="M31 1721l69 -11l80 11l57 -23l251 23l183 -23l228 12h126l114 11v-103l-12 -11v-12l-57 12l-34 -12l-46 12l-68 -12l-46 12l-68 -12l-80 12l-103 -23l-23 23l-148 -12l-115 12l-57 -23q-308 9 -308 46v45q0 23 46 23l11 12v11zM362 1414h23l23 -23v-23q0 -43 -57 -103 v-22q91 -87 91 -240q-120 -149 -148 -149q-206 46 -206 80q-57 83 -57 126q0 205 126 205l194 115zM579 1403q176 0 331 -160l12 -35l-149 -57q0 -45 -91 -45q-7 -57 -57 -57l-23 -69l34 -46h35q0 80 57 80q0 51 102 57q0 57 92 57l23 23l34 -160q-69 -262 -114 -262 q-30 0 -103 -103h-103q0 -61 -205 -103q0 -20 -126 -45l-11 11h-12l-103 -46l-11 12v11q308 155 308 240q46 171 69 171l-23 137v149l-69 102q0 138 80 138h23zM968 455q22 0 45 -126q0 -171 -320 -354l-102 23l-92 -12l-125 46l-46 -11q0 19 -171 45l-69 -22h-68l-35 34 q0 18 80 57q0 103 69 148q0 46 80 46q8 57 34 57h23l103 -34l125 23q92 -28 92 -103q-71 -23 -115 -69q-102 -25 -102 -57h205q0 27 114 115q0 34 149 45zM328 249v-11h46v11h-46zM221 -148l160 -12h80l206 -34l91 34q126 -8 126 -34l114 12h80l34 22l23 -22v-80l-23 -23 h-137l-69 -23l-159 23h-58l-45 -12l-12 12h-11l-274 -12l-80 12l-12 -12h-11l-126 12h-125l-23 23v45q0 21 103 46l57 -11z" />
<glyph unicode="3" horiz-adv-x="1135" d="M-17 1731l148 -23l12 12h11l34 -12l46 12l103 -12l159 23q31 -23 160 -34l46 11l45 -23l160 12h12l34 23h125l46 -12l34 12l12 -12v-103l-23 -22l-217 11l-91 -11l-35 11l-182 -11h-114q0 22 34 22v12h-91l-12 -34l-182 22l-103 -34q0 46 -68 57v35h22v11h-102 q0 -46 -23 -46l-23 23v57zM394 1434l45 -57v-23q0 -25 -102 -34l-12 -11v-12q10 -50 126 -194v-11q-80 -154 -171 -183q-217 67 -217 172l11 114l-11 34q98 41 148 103q144 102 183 102zM508 1434h23l45 -34l69 23q274 -70 274 -160q51 0 91 -262q-18 0 -103 -137 q-148 -131 -148 -160l45 -34q-34 -15 -68 -103v-34h57q0 56 91 114h12q37 -18 102 -137q53 -22 57 -46v-34q-14 -165 -205 -354q0 -31 -331 -68l-23 68v12q63 0 103 68q34 0 34 23q-48 0 -57 240q23 44 23 125v57q-30 69 -194 114v23q0 23 69 23l114 68l-12 69q23 27 34 183 l-34 34l12 34l-12 46l12 102l-80 69v68zM245 521h12q130 -40 137 -79l22 -115l-34 -91l12 -34q-92 -39 -92 -57q0 -34 92 -34l22 -35q0 -80 -102 -80q0 16 -206 103l-125 160q31 148 114 148q0 62 148 114zM702 225v-35h91v23h-68l-12 12h-11zM428 -140q80 -11 80 -34l80 23 l45 -11l35 11q79 -8 79 -23l57 12h35l102 -23q123 19 149 45h57l23 -22v-92q-12 -34 -69 -34l-137 11l-114 -11l-46 11l-34 -11l-171 23l-46 -23l-45 11l-57 -11l-240 23l-125 -23l-58 11l-11 -11h-11l-46 34v34q0 43 183 58l22 -23q52 0 103 34l91 -34q0 22 69 45z" />
<glyph unicode="4" horiz-adv-x="1213" d="M189 1730l80 -35l174 23l11 -11l58 11h23q81 -3 81 -23l57 12l139 -12q0 35 23 35l46 -12l11 12h12q46 0 46 -81h12q0 46 46 69l58 -23l46 23l92 -11l23 23l23 -23v-81q-11 -34 -69 -34h-439l-69 11l-46 -23l-184 12h-24l-126 -12l-47 23l-57 -23l-104 12h-84l-35 34v35 q7 38 211 57zM950 1453l12 -35l-23 -69q34 0 46 -161l-35 -300l35 -58v-196l-12 -46l12 -12v-11l-12 -104q0 -32 127 -46l23 -35v-11l-23 -24l-115 12l-12 -12v-126q0 -49 46 -116l12 12h11l24 -23v-12q0 -30 -208 -58l-104 12l-92 -35h-12q-231 0 -231 70q0 20 127 46 q35 127 127 127q0 57 196 57v70q0 23 35 23v11h-81l-184 -81q0 -34 -23 -34h-24q-34 0 -34 219l23 115q0 93 -23 93l11 69l12 311l-12 35l116 150l-12 46q0 102 277 127zM696 1338v-23h35v23h-35zM396 969l58 -58q0 34 23 34h12v-11q-86 -181 -173 -254q0 -50 -139 -208v-23 l23 -23h12l46 12q56 -35 150 -35h11l47 35q25 0 46 -104l-12 -12l-57 12h-289l-35 -23q-115 32 -115 69q35 104 58 104l34 -35v12l-11 34l69 81q104 46 104 139q109 72 173 161v23h-35l-57 -57q-23 0 -23 34q26 93 80 93zM-16 -158l147 -34l150 23l92 -23l162 11l69 -23 l150 23l173 -11h69q0 34 23 34h81l104 -11l35 11l11 -11v-115l-196 -12h-185l-219 12l-34 -12l-93 12l-46 -12l-11 12h-12l-127 -12l-81 12l-161 -12q-113 7 -113 35v80l12 12v11z" />
<glyph unicode="5" horiz-adv-x="1104" d="M172 1733h34q24 0 24 -69l11 11h23l35 -23q62 23 70 58l92 -23l324 34h47q23 0 23 -34h11q0 34 23 34h47l34 -34q99 11 139 46l35 -35v-81q0 -34 -46 -34l-162 11l-197 -11l-116 11l-81 -11l-81 11l-92 -11l-163 11l-11 -11h-12l-11 11h-12l-35 -11q-150 8 -150 34v58 q0 27 185 46zM149 1467l69 -58h12l139 23l162 -23l104 23l81 -35q0 20 81 35l35 -12l34 12v-23l-11 -12v-11l46 -12l12 12h23q-40 -81 -58 -81l-12 46l-23 -23l12 -58q-153 -127 -186 -127l-81 -70h-57l-81 23l-174 -23q-220 28 -220 70q0 70 93 92q0 35 46 70l23 58 q-8 34 -46 46q0 -53 -81 -81l-12 11v12l23 46l-11 58l11 12h47zM160 1039q46 -24 46 -58l-11 -116h23v-12l-23 -34v-12l23 -23h12q34 0 150 92h12q0 -96 -186 -150q-58 -69 -92 -69l-58 34q0 192 81 336l12 12h11zM658 900h11l116 -58v-58l12 11h35l11 -11l12 11h11 q139 -227 139 -289v-162q-90 -191 -278 -312l-104 11q-69 -46 -104 -46h-35l-34 35v11q40 104 115 104v12l-23 104l23 174l-11 324q-81 39 -81 58v57l69 12l12 -12h11zM172 784l-12 -58h23v58h-11zM774 738l23 -162h11v46l-11 116h-23zM727 541l-23 -81l35 -47l23 24v34 q0 60 -35 70zM149 518h46q42 0 93 -47l23 24q69 -37 69 -128q-23 -185 -69 -185l-35 -46q116 -35 116 -58v-46l-23 -24l-174 35l-46 -11q-151 149 -151 185l46 11q0 41 -46 81q0 104 151 209zM646 367l23 -81h12l23 23v23l-23 81q-17 0 -35 -46zM172 275l11 -12v-12l12 12 h11q21 0 35 -104q48 16 70 58q-40 9 -70 69zM273 -146q127 -26 127 -46l151 23l115 -23l151 23l69 -11l47 11l46 -23q88 12 116 35h23l23 -23v-70l-35 -34h-69l-58 -12l-69 12h-12l-162 -12l-93 12l-104 -12l-116 12l-46 -12l-46 12l-58 -12l-116 12l-173 -12l-12 12v92 q7 35 93 35h162z" />
<glyph unicode="6" horiz-adv-x="1219" d="M71 1722l23 -34l274 23l81 -12l126 12l57 -35l149 23l103 -11h11q98 0 138 34l114 -11l92 11l23 -34v-81l-23 -22h-115l-148 11l-92 -11l-80 11l-35 -11l-80 11l-80 -11l-69 11l-160 -23l-57 12h-103l-46 -12l-12 12h-11l-46 -12l-130 20l12 57l-23 23v12q7 34 107 37z M494 1431h12q23 0 34 -80q-25 0 -126 -92h-11l46 -240l-46 -126l11 -69l-11 -195l46 -183l-35 -126q0 -195 115 -195l11 -114l-11 -12h-103q-264 135 -344 344q-69 108 -69 183l35 12v114q-58 0 -58 35l23 68v69l-11 46q54 127 80 309q53 0 172 138h11l-11 57l46 34h160z M609 1431l57 -46h46q37 28 103 35q98 -36 172 -241q34 0 34 -23v-80q-111 -137 -217 -137q-172 21 -172 91q-23 45 -23 126l80 80v81q-103 0 -103 103l12 11h11zM666 858h23l12 -11l91 -57l103 11q79 -22 138 -183q68 -86 68 -138l-11 -11h-69q0 -46 -45 -46 q-135 -187 -207 -217q0 -46 -103 -46q-23 51 -23 149v34q0 56 35 115q-28 217 -69 217l-57 -11l-35 46v11q0 20 58 34q5 103 91 103zM1079 366v-23q-47 -120 -115 -183q0 -115 -286 -172q-69 11 -69 34v12q0 19 80 34q16 46 103 46h23q0 69 80 69q0 45 35 45q32 58 91 92 q0 46 58 46zM343 -153l22 -23l12 11h11l12 -11l103 23l11 -34l69 11l126 -11l46 11l137 -11l58 11l57 -11l80 22l103 -11l23 23l46 -46v-57l-35 -35h-80l-103 -11l-80 23l-11 -12v-11l-138 11h-57l-160 -11l-46 23l-126 -12l-35 12l-57 -12h-195l-45 12l-46 -12h-46l-34 35 v46q0 30 194 45l35 -11z" />
<glyph unicode="7" horiz-adv-x="1095" d="M205 1739l128 -23l104 11q174 -8 174 -34q-32 -3 -93 -82l-104 -11h-139l-46 11l-47 -11l-209 -3v23q0 23 34 23l12 12v11l-58 12v23zM1110 1727l23 -23v-93l-23 -23h-46l-151 12l-93 -12l-46 12l-12 -12h-12l-69 12h-23l-58 -12l-12 12v11q70 12 116 58l81 35l116 -11 l163 11h11zM472 1446l151 -35l93 11l150 -46q0 27 47 58v12h23l35 -35v-12q-68 -95 -81 -220q-95 -91 -232 -104q-181 46 -325 46l-12 -12h-11l-128 47l-93 -105l24 -58l-12 -11h-70l-34 35q34 221 81 301l-12 70q47 5 47 34h23q23 0 23 -69l58 -12h12q41 53 243 105z M739 993h23v-11l-93 -174v-81l-35 -174l24 -105v-23l-47 -12l12 -69q23 0 23 35l12 11h11l23 -69v-93q-48 -220 -81 -220l-11 11h-12l-70 -23q-266 0 -266 116q-47 19 -47 81v93l35 58l-11 93q81 18 81 58l-12 46q154 127 186 220q32 0 46 128q31 0 209 104zM565 355 q-77 -127 -104 -127v-23l46 -47q31 0 46 70q42 0 70 81q-5 24 -58 46zM437 158l-23 -46v-35l23 -23h35v35q0 60 -35 69zM147 -146q128 -9 128 -47v-23h-23v-35l11 12h35l12 -12h11q49 82 174 82l70 -12h46l81 35q113 0 151 -58q151 0 267 58l23 -23v-93l-23 -23h-371l-70 11 l-46 -23l-151 12l-46 -12l-35 12l-116 -12l-23 23l-70 -23l-104 12h-70l-35 34v35q0 23 58 23q0 24 93 24z" />
<glyph unicode="8" horiz-adv-x="1168" d="M1037 1728l11 -12v-11l116 11h23v-104q0 -23 -81 -23v-12l-58 12h-81v23l81 35v11h-336l11 -58l-371 -23l-70 12l-162 -12q-151 9 -151 35v70l186 34l92 -34h12v34h174l35 -23l162 23h24l46 -11l12 11h34v-11zM920 1612v-23l-81 -12v23zM677 1450q233 -100 278 -151 q0 -39 -35 -82v-23l47 -46l35 35q35 -8 35 -93q0 -158 -256 -325h-35v-23h47q104 0 104 -105l12 12h35q116 -88 116 -267q-48 -201 -93 -220v-24h-23v24l23 34v35h-35q0 -69 -46 -69q0 -43 -140 -70l-11 -12v-23h81q42 0 93 47h11v-12q0 -61 -290 -70q-73 0 -92 128l116 46 v24l-12 11v12l23 127l-35 105l24 174q-102 43 -105 70v11q77 70 139 70v23q-5 24 -58 46l12 116l-35 140q23 52 23 150q0 91 -92 105l-12 46zM445 1426h23l-46 -220l11 -93l-11 -12v-11l11 -35l-23 -162l23 -47l-11 -11l-12 11h-12q-55 -69 -104 -69v-35h-23q0 23 -232 209 v34h81q0 42 46 105q-139 0 -139 35q58 197 151 197l151 93l58 -12h23zM445 800h23l23 -23v-12l-81 -267q33 -352 58 -360l12 -11v-47q0 -93 -93 -93q-12 47 -58 47v23h58l35 35l-58 12h-221q-139 102 -139 243q58 8 58 58q69 23 69 81q47 0 47 35q0 19 69 47q0 37 70 104 l23 58q105 0 105 70zM178 684l23 -24v-11l-128 -128q0 -46 -69 -46v11q58 174 139 174zM65 -146l35 -23h11l35 23h23q39 0 81 -35l93 23l302 -23l70 12l11 -12h12l185 35l82 -12l46 12l12 -12v-11l-35 -47v-23q35 0 35 -23v-12l-140 -11h-81l-93 11l-92 -11l-70 11l-139 -23 l-47 23l-116 -11h-58l-46 11l-47 -11l-58 11l-92 -11l-12 11v47l23 23l12 46l11 12h47zM1179 -193l11 -11v-58l-23 -23h-69v34q32 0 81 58z" />
<glyph unicode="9" horiz-adv-x="1204" d="M-12 1727l11 -11h12l34 11l11 -56l11 11h12l57 -11q57 14 57 34l136 -12l114 23l23 -23l147 12l148 -12l12 12l57 -12h125q45 34 136 34q0 -68 91 -68h23v34h34l11 -34q0 -74 -91 -79l-34 11l-68 -11l-91 11l-45 -23l-69 23l-45 -11l-80 11l-102 -23l-57 34l-57 -11h-102 l-57 -11l-68 11h-228l-45 11l-35 -11l-11 11v103zM451 1426l57 -12v-91h-57l23 -250l-34 -23l11 -113l-11 -103q0 -83 125 -114l11 -45q-113 -80 -261 -80q0 38 -160 80l-22 34l11 11v12l-34 34q57 0 57 57l57 23l-12 11v11l69 46q0 45 68 45l68 80v34h-23q-94 0 -216 -159 q-52 -46 -57 -80l-79 -11q-46 78 -46 136v46l91 205q155 113 205 113v69zM656 1403q85 0 284 -171q0 -34 -182 -56q0 -46 -91 -46l-11 11v114l-80 68v35zM952 1164h11q56 0 114 -421q23 0 23 -68q-91 -206 -91 -250v-91l-126 -194q-62 0 -284 -159l-34 34v34 q125 101 125 171l46 11l-23 69l34 34q-102 0 -102 34l34 125l-23 171l23 91l-23 307q154 22 193 79q80 0 103 23zM679 675l22 -23h12v23h-34zM861 641v-34l57 -23h68q68 0 68 57h-193zM337 527q148 -77 148 -159l-91 -262v-11l34 -34l80 22l11 -11v-45l-22 -23l-91 45 l-91 -11q0 28 -103 68q-102 99 -102 148v46q0 116 227 227zM1187 -153l11 -34l34 23l12 -12v-11l-12 -46l12 -34q-44 -23 -137 -23l-136 12l-80 -12l-114 12l-11 -12h-11l-57 12l-91 -12l-34 12l-182 -12h-69l-45 12l-46 -12h-79l-125 12l-69 -23l-11 11v12l68 68h114 q159 0 159 34l57 -11h23l193 11l12 -11l22 23l46 -12l80 12q15 -47 56 -69q0 42 410 80z" />
<glyph unicode=":" horiz-adv-x="469" d="M176 1717l80 -34l80 34l11 -12l57 12h34l23 -23v-23q0 -34 -57 -34v-11q0 -34 80 -34l-12 -12v-11l-193 23l-12 -12h-11l-11 12h-12l-113 -23q-137 8 -137 34v11q0 80 137 91zM188 945q42 0 125 -102v-171q0 -34 -182 -57q0 26 -102 57l-12 136q26 0 159 137h12zM154 422 h34q34 0 34 -57l11 11h23q46 -20 91 -125q-25 -91 -91 -91q-69 0 -136 -68h-12q-91 71 -91 136v103q65 0 137 91zM355 -156l23 -23h46l34 23h11l23 -23v-23l-11 -45l11 -34l-11 -12h-23l-125 12l-12 -12l-57 12l-273 -12l-11 12v68l68 46l46 -23l114 23l79 -12z" />
<glyph unicode=";" horiz-adv-x="472" d="M165 1743l37 -11v-12l-13 -12v-12l13 -11h258q24 0 24 35l11 12h12l12 -12v-94q0 -28 -83 -35l-212 23l-234 -23l-13 11v59q8 35 94 35h83zM130 991h13l35 -23l70 11l106 -141q-19 -188 -94 -188q-85 -47 -130 -47q-116 61 -116 188v35l116 118h-22v24zM213 415h11 q86 0 177 -188q-103 -139 -129 -236l-153 -105l-118 -12l-11 12v24q0 23 59 23q129 57 129 82v83l-59 -13q-118 69 -118 224q50 0 94 47zM178 309v-12h94v24l-24 24q-39 -36 -70 -36zM52 -141l70 -35l199 35q107 -26 107 -47q0 -23 -35 -23l-48 -12l-11 -12v-35h35 q65 0 141 70l12 -11v-47q0 -27 -142 -36l-212 24l-188 -24l-11 12v12q0 86 70 118z" />
<glyph unicode="&#x3c;" horiz-adv-x="874" d="M99 1726q91 -7 91 -34v-11l-23 -34v-12l23 -22h34q0 68 91 68l23 23h46l159 11l68 -23h23l114 23l68 -23h23l34 23h22v-91l-34 -34h-68l-125 -11l-57 11l-34 -11l-68 22h-57l-68 -22l-91 11l-57 -11l-80 11l-159 -11l-23 34v34zM754 972l22 -23q-15 -159 -79 -159 q-34 0 -57 -45l-80 11h-57q-22 0 -22 -46q-46 0 -46 -68q-189 -65 -227 -102q0 -17 45 -34l57 11q82 -21 148 -102q51 0 227 -125h12l57 11l34 -46q-45 -138 -69 -147q-77 0 -329 159l-12 34h-45q-263 110 -342 171v125q0 17 103 45q191 68 261 159zM472 -149l148 -34l80 23 l159 -23l23 23l22 -23v-68q0 -23 -91 -34l-11 11h-11l-160 -23h-34l-45 12l-46 -12h-11q-114 0 -114 23l-79 -11h-126l-45 11l-46 -11h-79l-23 23v56q0 35 125 35l205 -12l23 23h91q22 0 22 -34h12z" />
<glyph unicode="=" horiz-adv-x="896" d="M262 1722q46 -18 46 -35l80 12h58l57 -12l11 12l35 11v12l195 -23l46 11l68 -23l35 23h34v-103l-23 -23l-91 11l-104 -11l-46 11l-11 -11h-11l-35 11l-103 -23l-241 23l-114 -11h-35q-147 -3 -147 31v35q0 23 34 23l-11 11v23h11l56 -8zM683 875q115 -73 115 -126 q-30 -74 -57 -80l-35 11l-206 -23l-103 23l-161 -34q-229 0 -229 172l229 34l69 -23h23l57 12l69 -12h12q172 0 217 46zM454 508q89 -31 103 -69l58 12h80l34 23q41 0 46 -149l-172 -35q-181 12 -241 35l-206 -46l-149 46q0 172 34 172h35v-35h23l80 12l11 -12l23 23l92 -23 q0 38 149 46zM443 485v-46h11v46h-11zM-7 -155l212 -20l69 23l23 -23h57q97 0 149 23l80 -23l35 12l11 -12l12 12v11q72 -6 114 -46l138 46h11l23 -23v-92l-11 -11v-12l-115 12h-23l-23 -23l-103 23l-69 -12l-69 12l-68 -12l-58 12l-11 -12l-80 12l-241 -23q-84 0 -69 80v23 z" />
<glyph unicode="&#x3e;" horiz-adv-x="853" d="M874 1736l11 -11v-104l-23 -23h-11l-46 12l-80 -23l-46 11l-195 -11l-12 11h-11l-46 -11l-46 11l-11 -11l-35 11l-344 -23l-11 12v92q0 27 92 34l91 -11l81 23l126 -12l46 12l68 -23h35zM438 1679v-12l80 -11h104v11l-115 12h-69zM14 1019h23q37 0 286 -161l344 -137 q0 -23 58 -23l11 -12v-57l-23 -35l35 -114q-164 -93 -436 -195q-35 -39 -298 -149l-12 11v23q49 75 92 80l12 12q0 46 68 46q0 55 81 57q65 69 172 69q103 116 103 149q-47 69 -482 218q0 23 -34 23l-12 11v12l12 11h252v12q-206 22 -206 45v12q0 23 34 23l12 11v12 q-115 0 -115 23zM25 342l12 -11v-12l-12 -11h-23v11zM676 -150l11 -11l58 11h46l11 -11q23 0 23 -58l11 -11h12l11 11h12l11 -11v-35l-23 -23l-57 23l-126 -34l-195 23l-321 -23l-80 23l-104 -12l-11 12v69q0 26 149 46l57 -23l287 23l92 -12h46z" />
<glyph unicode="?" horiz-adv-x="947" d="M-11 1721h161v-34l-69 -46q-17 -46 -34 -46h-58l-34 34v23q7 69 34 69zM608 1721l58 -34l218 23l46 -12l22 23h12l23 -23v-80q0 -26 -161 -35l-80 12l-115 -12l-149 12l-11 -12l-80 12h-172l-92 -23l-12 11v12q64 7 184 115l92 -12l34 12l69 -12h11zM391 1423h23v-34 q0 -49 -58 -115v-57l23 -35v-11q-45 -195 -195 -195h-11q-131 64 -172 114v58q57 46 114 160l150 58l11 -12h11q49 0 104 69zM517 1423h23l149 -138q100 0 149 -218l-35 -34h-217l11 -11v-12l11 12h12l34 -35q0 -46 -68 -46v-11h206q23 0 23 34l11 12h35v-12 q-84 -217 -149 -286q-195 -104 -241 -104l-46 12q-37 0 -115 -149h-11q-57 29 -57 92v34l11 69l-11 34l23 69l-46 46v46q37 45 263 114v23l35 23v23l-12 35h35v11l11 138q-12 57 -92 137q31 92 58 92zM528 1343q0 -67 46 -115l69 11q0 72 -57 104h-58zM425 402 q53 0 126 -206q-44 -18 -92 -160l-194 -35q-98 0 -150 207q0 89 310 194zM207 -149q138 0 138 -57h23l68 11l12 -11l436 46l23 -23l68 23l12 -12v-103l-12 -12v-11l-57 11l-115 -11l-68 11l-12 -11h-11l-69 23l-80 -12l-58 12l-80 -12l-46 12l-103 -12h-11l-58 12l-69 -12 h-183l-12 12h-11q0 103 92 103l103 -11z" />
<glyph unicode="@" horiz-adv-x="1573" d="M1085 1728h149l160 -11l35 11l80 -23l80 23l11 -11v-92l-34 -34l-69 11l-80 -11l-23 23l-68 -23l-161 11l-34 -11l-11 11v12l11 11h126q6 46 34 46l58 -12v23h-138q-114 0 -183 -68q-240 -5 -240 -23l-57 11l-321 -11l-91 11l-12 -11h-11l-12 11l-57 -11h-68l-46 11 l-46 -23q-103 12 -103 35v34h11l12 -12h11l58 58l251 -12h149q85 0 160 35l69 -12zM905 1425h46q218 0 481 -331v-138l11 -103l-91 -194l11 -69v-23q-166 -157 -355 -240q0 50 -217 91l-34 46v57h-23q-95 -148 -264 -148h-45l-92 91l12 69l-12 114q26 0 46 80q19 0 34 69 q43 0 126 69q34 0 34 45q39 0 103 126q64 46 264 103h11q123 0 172 -91l-80 -286l-12 -46l12 -80l-35 -126l69 -57h11q120 0 195 183l11 11l-23 23l23 195q80 0 80 57q35 0 35 57h-46l-80 -11l-46 114l12 46q-81 36 -81 114q-53 53 -308 126q-367 -42 -367 -126 q-121 -53 -183 -137l-91 -183q0 -92 -35 -160l12 -92l-23 -68q26 0 57 -184q105 -160 149 -160l114 -103q43 0 92 -34q0 23 126 23l46 23l11 -12h11l12 12h11l92 -35h46q67 0 228 161h23l35 -35q-71 -45 -161 -149l-228 -114h-58l-206 12l-80 -12q-198 49 -274 160 q-128 172 -149 172q0 168 -69 206v23l92 457q358 344 412 344l171 57h35v-46h11q61 57 183 57zM722 1013q0 -81 -103 -228v-35l23 -206h46q63 0 114 229l35 115l11 11v69l-46 45h-80zM53 -148l57 -12l149 12l22 -23h126l46 -12l229 23l23 -23l46 12l11 -12v-11l57 11h46 q155 0 252 23l45 -23l206 12l46 -12l80 23l12 -11h11l69 11l11 -11v-92l-23 -23h-194l-69 12l-137 -23l-149 23l-68 -23l-126 11h-12l-80 -11l-103 11h-91l-92 -11l-80 11l-149 -11l-114 11l-138 -11l-11 11v69l11 12q81 36 81 57z" />
<glyph unicode="A" horiz-adv-x="1416" d="M643 1727q312 0 312 -58h23q44 46 209 46q0 -25 93 -46q119 12 150 35l12 -12v-69l-23 -23h-70l-162 -24l-324 24l-81 -12l-47 12l-11 -12h-24v12l-370 -24l-104 24l-12 -12l-58 12l-162 -24l-46 35q0 93 173 93l232 11l23 -23h23l151 23l11 -11h12l46 11v-23h12z M921 1440l11 -11l-11 -81q6 -69 69 -139v-174l116 -359v-12l-12 -34l70 -209l-12 -69q32 0 47 -116l-12 -70h12q92 -33 92 -104v-23l-35 -12l-57 12q-77 -35 -163 -35h-34l-81 23l-209 -23q-53 23 -58 46q58 73 58 116l-23 81l11 12v12l-23 69l12 46h-12l-139 -11 q-116 9 -116 35v69l24 23l11 -11l-11 -12v-58h34v12l-11 34h11l35 -11l35 11l46 -11l35 23l-93 510l-11 69l23 23v35q-70 0 -70 116v116q0 23 70 35v11l46 -11zM457 1128v-58l12 -93l-70 -255l-69 -301l11 -58q-23 0 -23 -92l-185 -82h-12l-23 24q142 184 162 312l-11 12v12 q0 81 69 81v34h-23v24l35 46l-23 35q52 118 81 289q29 0 34 58l12 12h23zM700 1058q0 -23 -46 -23l-11 -12v-11h23l139 23v23h-105zM782 966v-12l57 -12h128v24l-35 34zM283 201h12q0 -61 139 -93v-23q0 -63 -58 -92h-116l-81 23l-139 -23q-46 48 -46 92v12q151 46 232 46 h23q8 58 34 58zM515 -135q128 0 128 -58v-23l208 58l70 -12l92 24q128 -12 151 -35h23l35 23h11q43 -35 81 -35l93 47h12l23 -24v-81q0 -34 -243 -34h-35l-47 11l-46 -11h-11l-24 23l-301 -35l-69 12h-93l-46 -12l-47 23l-69 -11l-197 11l-243 -23l-35 12v23l12 11l-12 12 v35q0 30 208 46l58 -12l128 12q0 -23 35 -23q150 8 150 46z" />
<glyph unicode="B" horiz-adv-x="1389" d="M231 1726l70 -23h115l220 11l58 -23l243 23l46 -11l58 11l69 -23h35l92 23l81 -11l104 23l12 -12v-92l-23 -23l-12 11h-12l-196 -23h-46l-47 -11l-115 34l-81 -23l-127 23l-81 -23l-93 23l-34 -23l-139 12h-185l-69 11l-58 -23l-35 12l-58 -23q-69 27 -69 46v46 q0 27 277 58zM234 1444h35l35 -23h23l69 12l93 -35l46 11l12 -11h11l-35 -139q35 -76 35 -162l-11 -277l46 -289q-46 -117 -46 -278q34 -11 34 -69v-23q0 -127 -162 -127q-87 11 -115 34l-12 -11l-58 11h-34l-127 -80h-35v23q14 31 208 150v23q-46 0 -46 58h-23 q0 -46 -23 -46h-24q-23 0 -34 104l23 162v11q0 98 -23 150l11 104l-23 81l23 93l-11 81l46 11l-12 81l24 35q-58 15 -58 35l11 34l-11 70l11 11h12q0 43 -116 70v11q0 63 231 104zM755 1444h81l138 -23v-35l-185 -46l-46 -46l-116 23q0 127 128 127zM1044 1375h11 q103 0 197 -324q0 -162 -301 -277v-12q143 0 197 -127q92 -34 92 -116l23 -208q-23 0 -58 -127q0 -63 -219 -139l-139 23l-173 -11l-23 35v11q0 23 92 46q58 76 58 405q0 39 -150 173l-24 58q162 0 162 127l12 93q-35 59 -35 115q0 135 70 162q0 35 231 35l-23 35v23z M200 1213v-23q92 0 92 -58h70q5 46 34 46h104l12 58h-289zM824 277v-12h58q0 58 69 58l12 11q0 42 69 58q0 58 150 58l12 12l11 57l-11 35q-39 0 -139 -58q-92 0 -92 -58q-32 0 -127 -92zM604 -151l104 -46q187 11 232 34l127 -11h23l69 11l70 -23h23l69 12l58 -12l23 23h12 l23 -23v-92l-12 -12v-11l-81 11h-115l-47 12l-69 -23l-58 11l-127 -11l-277 11h-47q-135 0 -185 -23l-69 23h-231l-46 -11q-116 11 -116 34v46q0 27 162 47l35 -12l23 23h104l11 -11h12l-12 -58v-12l12 12h11l47 -12l69 47q134 11 173 46z" />
<glyph unicode="C" horiz-adv-x="1250" d="M1048 1737l68 -34h23q60 0 103 34h11l23 -23v-91l-23 -23h-68l-46 12l-45 -12q-46 0 -46 23l-285 -34l-68 11h-80l-68 -11l-34 23l-80 -12l-205 12l-216 -23l-35 11v80q0 27 103 34l11 -11h12l68 23l68 -12l126 12l22 -23h12l182 23h80l91 -23l125 23l69 -12zM582 1437 l22 -22v-91l-102 -103l-11 -171l22 -91q-57 -131 -57 -194l46 -148l-11 -125l22 -148l-34 -102q68 -88 68 -160l35 23h11l23 -23q-12 -68 -34 -68q-80 15 -80 34l-80 -11h-34l-251 159l12 11v12l-12 34h183l57 34v23h-23l-34 -23q-114 8 -114 68h-57q0 -34 -23 -34h-23 q-26 6 -79 171q45 6 79 80l-11 45q91 0 91 57q92 0 148 69h80v34l-12 11v12q-148 0 -182 -57q-56 0 -114 -69h-34l12 -57h-35q-22 0 -45 217q0 99 114 193v23l-12 80q54 0 183 159l102 35v22h-23v12q23 45 69 45l34 -11q71 6 114 45zM775 1415l148 -80h12q102 17 102 68h23 q34 -11 34 -68l-11 -46l23 -170l-12 -126l23 -79q-27 -69 -80 -69q-4 31 -57 46q-65 319 -182 319q0 79 -80 79l-45 35v22l79 46zM1083 424l23 -23q0 -179 -103 -216q0 -61 -194 -126l-68 -68h-45q-46 18 -46 80l239 114q62 107 194 239zM277 -161l22 -23h114l171 11l11 -34 l57 23l69 -11l11 11v11l148 -22l194 11h34l34 23h34q23 0 23 -34h23l34 22h23v-102l-23 -23l-68 11l-160 -11h-34l-57 11l-68 -11h-34l-69 11l-11 -11h-12l-68 11h-11l-46 -11l-80 11h-148l-102 -11l-46 11l-148 -11q-125 0 -125 46l11 34l-11 11q68 15 68 34l80 -11z" />
<glyph unicode="D" horiz-adv-x="1380" d="M265 1725q114 -11 114 -34t-34 -23v-11l22 -23h12q113 0 113 34q0 46 23 46h34q23 0 23 -34h56l12 34l68 -12l113 12l57 -34q195 11 239 34l102 -12h22l103 12q68 -15 68 -34v-69q0 -22 -136 -34l-57 12l-114 -12l-306 12h-12q-132 0 -181 -23l-68 23h-171q-22 0 -22 34 h-12l-56 -46l-137 23l-102 -11h-45l-23 22v46l170 57l68 -23q57 8 57 34zM129 1433l11 -11v-12q-5 -31 -102 -91h-11l-46 46q0 35 148 68zM538 1433h11l23 -23v-11l-34 -57l11 -284l-34 -91v-11l45 -136l-45 -125l45 -79l-34 -262l34 -56v-23l-11 -68l11 -12v-11l-11 -68 v-23l11 -56l-193 -35l-204 12l-79 -12q-80 9 -80 80l136 68h12q-50 61 -80 182l12 181v68l-23 103q76 0 136 68q114 0 114 56q96 0 124 57q69 0 69 68h-12q-98 0 -147 -68q-58 0 -103 -57q-92 0 -147 -56h-34v11l45 261l-11 80l11 34l-22 159h11q57 0 136 79l57 34h11 l80 -23q103 0 159 46zM708 1433h23q139 -114 227 -114v-22h-23v-23h11l57 11q95 -89 159 -272q53 0 68 -170l-11 -125l11 -12v-11l-11 -45l11 -46q-52 -245 -159 -374q0 -25 -102 -80q-58 -102 -193 -102l-91 -34q-57 0 -57 102q0 31 114 45v23h11l-11 57v136l-11 114 q72 72 90 136q35 0 35 23q-22 51 -46 56l-34 -34l11 -45h-45v57q0 56 -23 56l12 57v46h11l11 -12h12l11 12v11l-34 57l23 159l-80 261q-45 0 -45 22v23zM992 1206l-12 -12v-11h57v11zM413 161v-56l22 -23h12v23l-12 56h-22zM379 -149l11 -34h23l34 22h23l34 -22h147l46 11 l34 -11v11l22 23h91q41 -49 148 -103h56v23q0 23 -56 23v57l91 -12l124 12l69 -23h45l79 11l12 -11v-91l-23 -34l-57 11h-215l-69 12l-56 -12l-57 12l-11 -12v-11l-171 23l-56 -23l-125 11h-46l-56 -11l-69 11h-147l-57 -11l-68 11h-34l-114 -11l-11 11v80l23 23h79l68 11 l34 -11l103 11l34 -11q0 22 68 34zM935 -161l23 -22l-12 -12h-11l-23 23l12 11h11zM1117 -183v-35h22v12z" />
<glyph unicode="E" horiz-adv-x="1204" d="M1064 1742l103 -11h34l23 -23v-81q0 -22 -91 -34v12q0 28 46 34v57l-172 -69q-126 0 -126 -34l-138 12h-91l-69 -23l-103 23l-206 -23l-35 23l-80 -12h-11l-46 12l-34 -12q-115 7 -115 34v35l23 23l11 -35h12q34 46 126 46v12l114 -12h264l160 23l103 -11zM723 1452 l12 -12v-11l-23 -69v-12l23 -22h23q0 48 46 91l114 -11l126 11l12 -11v-92l11 -252q-59 -57 -103 -57l-80 114l11 35l-126 114v12h-34l-46 -12q-57 16 -57 80v58q0 30 91 46zM288 1429l183 -58l58 35l57 -69v-57q0 -39 -34 -80v-46l11 -115q0 -94 -92 -126l-68 -46 q-103 0 -138 -57l-80 -11v-12q57 -48 57 -80h12q0 51 103 57q0 46 80 46l103 69h12l57 -126l-80 -275l11 -46l-11 -11v-12l23 -80l-12 -11v-12l12 -11v-35h-12l12 -80v-137q0 -27 -207 -46l-103 57h-11l-138 -46q-73 30 -80 58v34q0 30 80 46l-11 57l34 103l-34 115 q23 44 23 126v68l-23 172l23 126l-23 126l23 161q-1 39 -126 148q130 81 309 81zM792 1028h35q34 -140 68 -493v-46l-57 -57h-11q-84 60 -149 206l-46 46v12q0 63 91 103l23 45l-11 12v11zM1033 455q30 0 57 -160l-23 -69v-183l-34 -35l-184 35l-206 -23v11q14 103 35 103 l57 -11q0 46 46 46l34 -12q69 55 138 218zM1188 -144h11l34 -34v-92l-23 -23h-91l-103 11l-12 -11l-114 11h-12l-297 -11l-12 11h-11l-58 -11l-114 23l-92 -23l-80 11l-69 -11l-46 11l-91 -11l-46 34l11 12v34l-11 35h11l58 22h46q114 0 114 -34v-11h23v11l-11 12v11l34 11 l126 -11l11 11h12l137 -22l92 22l11 -11l58 11h11l34 -22l46 11l12 -11h11l12 11h11l69 -23q51 23 149 23h114z" />
<glyph unicode="F" horiz-adv-x="1180" d="M1 1727l136 -34l137 11l80 -11l11 11h12l68 -23l216 12h91l69 11l57 -11l45 11l91 -23h57v12h-34v11l12 12v11q170 -8 170 -34v-91l-11 -12v-11l-34 11l-125 -11l-126 11l-193 -11l-114 11l-80 -11l-68 11l-114 -11l-148 11l-12 -11h-11l-11 11h-12l-45 -11 q-126 0 -126 46l23 45l-34 34zM932 1436q114 -12 114 -34v-12l-12 -57l23 -330l-34 -23q-80 0 -80 80l34 34v11h-57l-79 103q-205 86 -205 171l125 34l91 -11q80 18 80 34zM169 1424l113 -22l12 11h11q123 -8 148 -34h46l11 45h34l12 -79l-12 -148q31 -38 46 -194 q-34 0 -57 -239l11 -34l-11 -103v-11q4 -80 23 -80l-12 -57v-137l12 -68q-15 -80 -34 -80h-160q-41 -34 -80 -34v-11l160 -12l171 12l45 -69q-19 -51 -68 -79h-68q-69 45 -137 45h-91l-171 -45q-125 0 -125 125q91 0 91 68l57 12v11q-46 0 -46 34v12q0 26 57 34l12 -12v23 q-74 0 -92 205l23 103l-11 79l11 12v11l-11 46l23 34l-23 68q19 0 34 69h34v34l-57 102l34 69q-22 24 -22 125q-44 45 -103 45l-11 12v34zM408 1288q0 -35 -57 -35v-11h57l23 23h68v23h-91zM818 1026h23q23 -5 45 -57h11l-11 -80v-11l11 -148l-11 -46l11 -148l-68 -57h-34 q-24 5 -46 57l12 46l-91 113l34 46q-68 0 -68 57q125 30 125 114q0 80 45 80zM226 992v-23h34l-23 23h-11zM408 866v-23h34l-23 23h-11zM226 251v-23h79v23h-79zM912 -140q102 -11 102 -68l46 34l11 -11h12q44 23 125 23l11 -12v-102h-11l-91 -12l-228 23l-137 -23l-57 12 l-11 -12l-57 12h-148q-57 -3 -57 -23l-193 23h-183l-57 -12l-11 12v68q0 28 102 34l103 -11l80 34q136 -11 136 -34l114 11h160l125 12l68 -23z" />
<glyph unicode="G" horiz-adv-x="1310" d="M186 1735h92q34 0 34 -57l12 11h57l34 -23h12v12l-12 34l35 23q91 0 91 -46l80 35l57 -23l81 11l125 -11q189 0 229 34h23l46 -11l34 11q0 -92 103 -92l23 -22q0 -28 -103 -35l-57 23q-69 -8 -69 -23l-114 12h-172l-183 11l-34 -11l-103 11l-35 -11l-45 11l-103 -11 l-69 11l-149 -11h-34q-84 0 -92 34v46q0 27 92 34l92 -11q0 34 22 34zM472 1441h12l91 -46v-23q-103 -154 -103 -217l12 -46l-12 -80l12 -149l-12 -91l12 -35l-23 -91v-252q0 -26 -137 -46q0 -34 -23 -34h-57l-138 -12q-10 57 -103 149l23 160l-23 23v92l35 114h11l-11 46 q0 141 206 355q0 18 114 80v80l57 11l12 -34h11q6 46 34 46zM1079 1441l46 -46v-126l34 -137q-23 -218 -69 -218h-45q-32 0 -80 218l-206 183q-62 0 -81 46v23l23 22h115q41 0 91 -45h46q79 80 126 80zM850 1269v-11h46v11h-46zM129 811v-11q9 -103 57 -103q46 0 58 69 q57 14 57 34v11h-172zM1067 777q61 0 126 -91l-45 -126l11 -46l-23 -103v-114l12 -46q0 -126 -126 -126q-99 -88 -344 -137q-52 22 -57 45v12l126 91l-11 321l11 80q-49 114 -126 114v23q0 27 218 46l23 23l183 -23q0 57 22 57zM484 342l34 -137l-11 -46l68 -68 q0 -80 -80 -80q-343 80 -343 228l46 35h23v-12l80 12h80q54 68 103 68zM183 -150l12 -12l80 12q114 -3 114 -23l218 23h91l-114 -92h-172l12 -11v-35l-58 -11l-205 23l-172 -23l-23 34q0 80 69 80l11 12v11l80 -11h23zM996 -150h91l23 -23v-57h80q59 0 115 68h11l23 -23v-68 q0 -20 -149 -46l-331 23l-46 -12l-149 12h-11l-23 23q23 23 148 34q0 27 92 46l69 -12h11z" />
<glyph unicode="H" horiz-adv-x="1501" d="M163 1728h103l23 -23l-115 -12q0 -42 138 -80q0 23 173 46q0 34 322 57l12 12h11l23 -35l230 12h58v23h12q126 0 126 -35v-57q107 0 150 69l92 11l11 -11v-92l-23 -23h-391l-104 11l-69 -11l-11 11l-58 -11h-57l-104 11l-57 -23l-139 23l-46 -11h-46l-57 11l-69 -11h-92 l-184 11l-46 -11l-12 11v23q51 81 127 81l69 -12v35zM876 1451l127 -34l103 11l70 -23l184 35l23 -35q0 -71 -104 -115l-11 -92l23 -149l-23 -185l23 -92l-23 -126l23 -104l-23 -34l11 -46l-11 -115l23 -47l-12 -46l12 -80l-12 -81h46l12 12h11l12 -12v-23l-35 -34l-115 23 l-81 -12l-115 23q-6 -46 -264 -57l-23 34q13 92 46 92l11 -34h23l12 34l-12 115l23 162l58 -12q23 0 23 92l69 12v11q-161 0 -161 46l23 104v11h-127q-80 0 -80 81v11q0 35 149 46l12 -11q0 69 23 69q34 -42 34 -92q27 0 35 80q-23 53 -46 58l-12 -11l-11 11l11 12v115 l-34 115l57 80q-19 62 -161 161q0 27 184 46zM220 1440h415l34 -35v-34l-115 -115l23 -276v-69q-35 -43 -35 -81v-12q0 -38 35 -80l-23 -127l35 -149q-35 -12 -35 -69v-23l23 -127v-23l-23 -35v-23q46 0 127 -115q-5 -23 -58 -46l-276 58l-299 -46q-46 48 -46 92q34 0 34 46 l46 23v138l-23 81q38 0 81 402l-12 35q61 0 92 81l-11 46h-23q-23 0 -46 -70h-35q-23 0 -23 35l12 104q-23 0 -23 34l46 138l-46 127v11h23v23l-23 35l23 23l34 -12zM243 1313q46 -62 46 -103h12q67 80 138 80q0 46 103 46q0 23 35 23l12 12v11l-208 12q-73 0 -138 -81z M232 1095l-12 -12v-34l12 -81h23l11 81zM911 1037l-23 -34v-23l23 -69l46 57q0 58 -46 69zM197 393v-23l46 -35q69 12 69 58q89 16 127 69q103 13 103 34v58h-34l-150 -46q0 -46 -80 -46q0 -60 -81 -69zM151 300v-11l23 -23l35 34l-12 35h-11zM309 -141q12 -34 69 -34 l150 23l11 -12h12l35 12l11 -46l35 23h11l35 -23h46q0 34 23 34l46 -23l230 12q0 23 34 23l12 -12h11l46 12h12l23 -23l-11 -69h34q21 69 207 69h69l35 23h11l23 -23v-81q0 -34 -333 -46l-70 23l-115 -11l-161 11l-11 -11v-12l-104 23l-92 -11l-57 11l-58 -11l-69 11 l-12 -11h-11l-69 11h-92v12l11 11v12l-23 23l23 34l-23 23v12zM45 -152h23q56 -58 149 -58l12 -11v-69l-81 -12l-103 35l-46 -12l-23 23q0 23 46 23v35l-12 11v12z" />
<glyph unicode="I" horiz-adv-x="772" d="M337 1734l161 -46l162 23l58 -12l70 23l11 -11v-93q0 -23 -35 -23l-115 12l-12 -12h-11l-70 12l-92 -12l-35 12l-185 -12h-69l-47 12l-161 -23l-12 11v81q0 28 116 35l208 -12q0 20 58 35zM368 1447h81l35 -23l11 12h12l12 -12h11l81 23q69 -60 69 -104q-115 0 -115 -138 l-23 -81v-93q0 -88 46 -104l-12 -58v-115l12 -104l-46 -128l58 -242l-12 -104q81 -58 81 -93q-38 -92 -81 -92l-116 57l-115 -23l-104 23l-116 -34q-98 0 -139 69v12l23 23h58q46 155 46 347h47l-12 57q0 35 81 35v12q-139 0 -139 81v127l-11 127l23 116l-12 46l12 104v69 l-104 104v12q0 35 335 69zM299 511q0 -35 -35 -35v-11q111 0 162 -24l69 12h24v58h-220zM285 -155q23 0 23 -34h35l46 34l115 -11l81 11l104 -11l105 11l11 -11v-58q0 -23 -127 -35l11 -11v-12l-11 -11h-35l-69 11l-35 -23l-81 12h-81l-58 -12l-289 35l-57 -23l-12 11v23 q0 83 162 104h162z" />
<glyph unicode="J" horiz-adv-x="1119" d="M75 1728l112 -33l223 33l66 -22h12l345 22v-45h45l-12 12v22l56 11q56 -22 167 -22l23 22h11l22 -22v-89l-22 -23h-78l-179 11l-11 -11h-11l-44 11l-45 -11l-11 11l-56 -11h-200l-90 23l-89 -23h-22l-67 11l-56 -11l-33 11l-67 -11h-44q-23 0 -34 101zM903 1442 q123 -19 123 -101q-90 -61 -90 -111h-11l11 -89l-22 -335l11 -78l11 -423q-83 -147 -345 -234q-40 -34 -112 -34q0 19 -66 34l-12 56v22q101 71 101 212l11 11v11l-11 33l11 11v12l-11 44l11 11h167l56 11v67q0 25 -101 34l-144 -11l-23 66l45 491l-112 212v11q0 26 179 44 l11 11l167 -44q75 0 145 56zM301 572q100 -46 100 -145v-33q-54 -54 -66 -134q-23 0 -45 -55v-12q67 -7 67 -33v-45q0 -33 -112 -44q-228 206 -245 256q0 103 167 223zM654 -151l56 -11l78 11l133 -22h56l89 22l11 -11h12l33 11l11 -11v-101q0 -22 -33 -22l-45 11l-100 -11 h-11l-45 11l-45 -11l-100 11l-44 -11l-90 11l-33 -22l-134 11h-89l-100 -11l-34 22l-55 -11h-78l-134 11v23q94 89 189 89l246 -23l66 12l56 -12q114 14 134 34z" />
<glyph unicode="K" horiz-adv-x="1437" d="M1351 1731l11 -45h11q0 34 23 34h45l22 -23v-101h-79l-78 11l-23 -23h-11l-34 12l-68 -12l-237 12l-146 -12l-12 12l-56 -12h-147l-124 -11l-124 23l-102 -12l-90 12l-158 -23l-11 11v91l79 45q58 -34 113 -34h67q84 0 91 34q135 -12 135 -34l169 11h57l101 -11l68 22 l34 -22h34l90 22h11l45 -22zM217 1421l102 -56l180 11h68l34 22h22l23 -22v-45l-79 -91v-609l11 -214q-22 -51 -22 -147v-22q0 -89 101 -170l11 -33l-112 -34l-68 11l-169 -11l-79 11l-45 -11l-34 11l-57 -23l-124 57v11q60 79 102 79l22 -22v11l-11 56q9 91 57 91 q-9 112 -34 112l11 34l-34 215l11 11v11l-11 34l11 147l-22 56l22 102l-22 259q-69 25 -79 68zM1300 1398l34 -56q0 -37 -169 -90l-102 -91q0 -24 -101 -146v-11q45 -78 45 -136q0 -28 -113 -90q0 -23 -113 -34q0 -45 -67 -45l-46 -23q0 -45 -22 -45l-23 23v34 q64 135 249 293l45 203v23l-113 112v23q0 34 496 56zM1029 789l23 -22v-79q0 -42 79 -158l135 -361q23 0 23 -34q0 -45 -56 -45l-12 -45h45q61 45 102 45l11 -12v-11q0 -33 -180 -68l-192 23h-11l-237 -11q-52 22 -57 45v22q0 23 45 23v90q0 136 -112 373v11l33 11l12 -11 h11q21 0 56 68q67 0 102 56q77 0 180 90zM206 507v-79h11v79h-11zM217 -158h79l226 -11v-11q-86 -113 -147 -113l-79 11l-68 -11l-11 11h-11l-11 -11h-12l-158 11h-33l-23 23v45q0 23 113 45h45l34 -22h34q0 33 22 33zM1063 -158l45 -45l350 34l11 -11v-90q0 -23 -33 -23 l-12 11l-56 -11h-45l-136 11l-101 -11l-124 11l-215 -11l-90 11l-101 -11l-12 11v12q0 22 136 56l34 34h101l45 11l34 -11zM330 -180v-23h56v12z" />
<glyph unicode="L" horiz-adv-x="1180" d="M1069 1736q92 0 92 -57h11q0 46 23 46l12 -12v-91q0 -35 -46 -35l-57 12l-103 -12l-92 12l-34 -12l-80 12l-57 -12l-80 12q-46 -3 -46 -23l-138 11h-91l-114 -11l-12 11v12l-80 -12h-80q-126 0 -126 35v34q0 42 195 57l11 12q18 -21 252 -35l68 12l80 -12q0 35 23 35h46 q23 0 23 -58l80 -11q0 23 34 23q0 23 58 23v11l80 -11h80zM57 1399h23v-11l114 11h81q144 -22 205 -57q100 23 138 57q60 0 68 -114l-22 -23h-58q-34 -85 -34 -183l34 -275v-11l-34 -34l11 -35l-11 -34l23 -240q-44 -206 -80 -206q-47 0 -115 -138v-34h58q0 50 45 80l35 57 h23l34 -148l-149 -57l-91 34l-103 -23l-172 23l-46 -12l-23 35q0 23 103 45l12 12v126l-23 103l46 160v23l-23 69l11 251l-23 126l12 12h11l-11 80v23h11q23 0 23 -35h69v12q-57 0 -57 23v22q0 23 34 23l11 12v11q-114 0 -114 115q-103 30 -103 45v12zM297 1102v-23h35v23 h-35zM160 690l-11 -34q17 -46 34 -46l34 11q0 69 -57 69zM961 484q63 0 103 -69v-91q0 -23 -34 -23l-12 -34l46 -229q-8 -57 -34 -57h-12l-80 57l-252 -23l-34 46v11l126 57q11 43 114 126l23 57h-34q54 167 80 172zM191 -157h81l45 -34h23l34 23h115q84 0 91 -34l172 22 l160 -11l252 34h23l23 -23v-80q0 -34 -149 -34h-240l-183 11l-35 -11l-91 11l-46 -11l-69 11l-91 -11l-57 11l-161 -11l-114 11v69l80 46l80 -23zM363 -248v-12h69v12h-69z" />
<glyph unicode="M" horiz-adv-x="1561" d="M-4 1728l11 -11h12l11 11h11l34 -11l12 11h11l57 -23l114 12l262 -23l159 34h45l23 -23l-11 -45q43 -34 102 -34h12q0 56 45 56q0 35 23 35h45l35 -23q121 34 204 34h160v-34l-137 -12h-34v-11q7 -27 80 -57q58 0 307 91v-79q-12 -35 -68 -35h-57l-57 12l-68 -12h-12 l-159 12l-91 -12l-125 12l-205 -12l-114 12l-80 -12l-68 12l-91 -12l-159 12l-12 -12h-11l-11 12h-12l-34 -12l-125 12h-46l12 79l-23 23zM201 1434q182 -46 182 -80v-11h45v11q-34 0 -34 23l125 34q15 0 68 -159l-22 -23v-45l34 22q0 -34 45 -34l-11 -91q57 -92 57 -159 v-57h34q0 68 80 159l45 -170q-12 -104 -102 -239q0 -50 -57 -171l11 -57v-80l-45 -113l11 -46q-42 -23 -91 -137h-11q-52 0 -125 285q-20 4 -80 159l11 80q-95 150 -136 375q-28 0 -46 148q-16 0 -79 205q-60 0 -103 68v23q19 46 80 46l34 -23h11q0 57 69 57zM1156 1400 q87 -29 103 -80l-23 -34q46 -62 46 -102q148 138 148 182h22l12 -46q-103 -73 -114 -102v-46l11 -102l-11 -103l11 -148l-45 -102l68 -125q-34 -31 -45 -137q-92 -6 -92 -68l-56 -11v-23l45 -34q57 0 80 68l34 11l34 -102l-11 -68v-46l79 -114q-27 -68 -68 -68l-148 23 l-11 -12h-12l-91 23l-136 -45q-205 50 -205 68v11q0 19 136 91l-11 160l11 364q111 12 148 68q88 0 148 148l-11 34h-23q-130 -148 -193 -148q0 -26 -57 -34l-23 91v273l-23 46q0 148 34 148h126q0 91 113 91zM1350 1400q80 -12 80 -34h-114v22zM804 1093h34v-12l-23 -23 l-11 12v23zM1225 1070l-12 -12v-34l12 -79h11l23 22v34q0 60 -34 69zM166 842q38 -49 57 -171v-79q34 -42 34 -159l-22 -171h11l91 -114q41 0 91 -68v-12q0 -24 -125 -68h-91l-34 23h-80l-79 -12l-12 12v57l137 114l-12 56v35q0 80 23 125l-23 296l12 11v11l-12 69v11z M1145 285v-12l23 -23l34 35l-11 34h-12zM30 -158l114 -11l79 11v-34q-47 0 -91 -68h-136l-23 22v34zM553 -158q80 0 80 -68q0 -23 46 -23q53 0 238 91l35 -11l182 11h22v-34h-56v-12q53 0 79 -22l34 11l12 -11v-69h-12l-91 12l-11 -12h-11l-35 12l-136 -12l-103 12l-56 -23 l-137 23l-91 -12l-57 12l-102 -12h-80q-148 0 -148 35q171 14 171 68h159zM1270 -158l125 -34l91 34h69l34 -34v-80l-12 -11v-12h-22v12l-114 -12h-148l-46 57l12 46l-23 23l11 11h23z" />
<glyph unicode="N" horiz-adv-x="1410" d="M46 1733l81 -23l12 12h11q69 -17 69 -35l231 23l70 -11l92 11l104 -11l104 11l46 -11l58 23q69 -35 138 -35l69 23l70 -11l23 34q127 0 127 -46l-12 -34h12l69 11l11 -11v-46l-23 -24l-69 24l-138 -24l-58 24l-116 -35l-277 35l-196 -24h-23l-138 24l-116 -24l-58 12 l-57 -12l-104 12l-69 -12l-12 12v81q0 23 46 23q0 34 23 34zM93 1445h34l139 -46l23 34q381 0 381 -127q0 -40 115 -138l127 -346q219 -237 219 -347l-11 -11l11 -58v-81q35 -46 35 -115q-17 -173 -81 -173h-23q0 -35 -23 -35q-202 41 -254 116v23h23v23h-23v-23l-46 57 l11 12v11q-23 0 -46 70q-52 46 -81 150q-63 29 -161 288q58 0 58 46q115 6 115 93v34l-35 12q-34 0 -34 -58l-162 -23q-115 150 -173 335q-162 185 -231 196v35q93 6 93 46zM1039 1422q46 -23 127 -23l23 23h23q87 -12 92 -46v-35q-150 -104 -150 -162v-103l12 -70 q-40 -311 -69 -311q-58 46 -58 104l23 115l-35 150l24 81l-70 81q0 127 -46 127l-11 11v35h23zM196 1064q93 -144 93 -254l-12 -150l35 -150l-35 -219q35 -58 35 -127h34q64 0 81 -46v-35q0 -58 -34 -69l-220 11l-34 -11q-116 11 -116 46q0 23 46 23q29 58 70 69l-12 12v11 q23 179 81 243l11 46l-69 265v127h58v12q-46 0 -46 23v35l23 34v12l-23 34v23zM658 972v-46h12v46h-12zM739 452v-11l58 -46l34 23h243v23l-12 11v12l-115 -12h-12l-23 23q0 29 46 35v12l-81 11q-34 0 -92 -58q-46 0 -46 -23zM-11 -133h11l35 -35l11 12l173 -24q0 35 127 47 l12 -35h12l34 23h46q116 0 116 -23l265 23l12 -11v-12q0 -35 -58 -35v-46h81l127 81h81l161 23l81 -35l104 12l11 -12v-80l-11 -12v-11l-81 11l-138 -23q-197 23 -566 23h-81l-46 -11l-11 11h-12l-12 -11h-11l-69 23q-47 -23 -127 -23l-70 11l-69 -11l-11 11h-12l-46 -11 h-23q-81 0 -81 127z" />
<glyph unicode="O" horiz-adv-x="1386" d="M75 1727h47q70 0 70 -46l92 23l12 -12l244 35l69 -35l128 35l197 -23l47 11l174 -11l46 11l70 -23h70l46 35l35 -35v-69q0 -29 -58 -35l-70 11l-336 -23l-163 23h-46l-105 -23l-185 23l-12 -11h-12l-35 11l-46 -11l-46 11l-58 -11l-58 11l-70 -11l-81 11l-58 -11l-12 11 v35l12 12q0 17 69 23q0 58 23 58zM563 1448l12 -11v-12q0 -64 -244 -255q0 -12 -151 -23q-93 11 -93 34q70 93 313 209q111 58 163 58zM842 1425q63 0 139 -93q116 0 151 -151q64 0 139 -371q0 -151 -81 -151q-58 0 -58 -58l-116 -12h-140v-23q70 0 70 -23q0 -46 -70 -46 v-12l117 -12q133 0 197 70h23q0 35 23 35h12v-81q0 -29 -58 -117q0 -179 -348 -336q-64 0 -186 -47h-12v58q116 93 116 128l35 128v81l-23 128v23h35v12q-58 5 -58 34v35q29 157 81 174l35 -11l69 11l-11 12v12q0 69 81 69v12h-186v-23l12 -12v-12l-12 -11h-11 q-47 75 -47 116l24 139q-18 23 -35 198l-70 69v23zM482 1205h23v-174q-23 -29 -35 -117l23 -139l-23 -69l23 -24l-23 -418l139 -185q-17 -82 -46 -82q-441 128 -441 337l-12 12v11l35 35v12q-93 0 -128 127l-34 35v23q34 47 34 105l-11 104q23 35 58 233q191 23 244 69 q127 0 127 58q47 0 47 47zM934 -153q12 -70 59 -70q139 40 139 58l139 -12l47 12l11 -12h12l46 12l23 -35v-81l-11 -12v-11l-70 11l-93 -11l-69 23h-58l-70 -23l-46 11l-47 -11l-244 23l-116 -23l-58 11h-244q-58 0 -58 -23l-162 23h-70l-23 23v58l93 47h46l93 -12l93 12 l12 -12v-11l-35 -35q11 -47 58 -47q40 93 255 93l12 12h11l24 -23h81l35 23l58 -12z" />
<glyph unicode="P" horiz-adv-x="1343" d="M312 1725l11 -12l-11 -57v-23h23l11 46l12 -12h11l185 46l58 -11l81 11l23 -23l265 12l58 23l69 -23l127 23l92 -23l35 11l11 -11v-92l-23 -23h-80v23h57v34h-92l-23 -23l23 -34h-23l-219 11l-243 -23l-92 12l-127 -12l-35 23l-127 -23l-138 23l-242 -23l-23 35v80l23 23 l23 -23l11 12h12l57 -12q127 35 220 35zM889 1448q63 0 104 -69l-12 -116l12 -34h11q17 0 35 81l46 23q138 -75 138 -277l-11 -12v-11q35 -93 35 -197q-283 -300 -554 -300l-24 23l12 104v12q69 0 104 242q138 0 138 58h197v58q-81 0 -81 57h-104q0 -57 -139 -57h-23l-23 23 q18 46 70 46q0 115 -174 265v12q0 17 70 34l57 -11zM543 1436h11l12 -11h11l-11 -58q11 -288 34 -288q0 -173 -104 -254l-23 -46v-23l35 -35l58 35v-23l-12 -47l23 -69v-58l-23 -92l46 -115v-127l-11 -81q92 -12 92 -92l-185 -46l-196 34h-57q-41 0 -81 -34q-162 17 -162 57 v23h35q115 0 115 93v23l-23 127v23l116 11v23q-76 0 -162 139l23 173l-12 11v12l24 58l-12 69l12 58l-12 92v12q0 28 139 57q0 35 276 58l-11 11v12l23 69h-196q-46 0 -116 -46l-34 -11q-58 0 -81 92l-115 127l23 23q69 0 69 -46h115q0 57 185 57l127 -11zM889 1206v-23h46 l-12 34zM450 398v-12q12 -34 69 -34h35v46q-46 34 -46 69h-23q-35 -11 -35 -69zM1267 -148h81l34 -35v-34q-28 -81 -92 -81l-485 23l-80 -11l-150 23l-162 -23l-11 11h-12l-46 -11l-35 11l-69 -23l-162 12h-80l-35 34q0 81 162 81l161 -12l196 23l23 -23v-57h23v11l-11 35 l35 11l11 -11h12l46 23l46 -12l219 12h12l57 -12l197 23l23 -23h69q0 35 23 35z" />
<glyph unicode="Q" horiz-adv-x="1383" d="M-13 1725l117 -12l71 12l106 -24l47 12l12 -35h24l82 23l12 -11h12l12 11l70 -11q95 0 165 35l106 -35l36 23h71l70 -12l59 12l36 -12l23 24h83q23 0 23 -35h12q0 35 24 35l94 -47v12l23 23l24 -23v-83l-24 -23l-58 11l-307 -23l-165 23l-71 -11h-35l-106 11l-71 -23 l-177 12h-176l-236 11v12l23 35q-35 0 -35 24v35zM433 1439h128l24 -23q-128 -140 -128 -326l23 -163q-151 -163 -268 -163q-52 0 -81 -46l-105 -12l-12 12v46q0 169 105 279l35 94v34l-12 59l222 139zM782 1439q175 -41 175 -93q70 0 151 -128q53 -23 58 -47v-23 q-116 0 -116 -70q0 -29 -58 -35v-11h151q0 35 23 35q94 -76 94 -268v-46q0 -373 -245 -547v-24q0 -29 140 -58q81 23 81 70h12l23 -23v-12q0 -145 -302 -174l-82 -12q0 41 -81 81l-117 -35l-11 12v93q0 23 58 23v47q0 17 -175 81v35q0 41 163 59l24 -24h23l-23 221l34 245 l-34 221v23q0 93 46 93v35l-23 35q0 23 46 23v24q-69 0 -139 81l-12 70v11zM992 1137v-12h46v12h-46zM457 846l23 -24v-104l35 -93l-35 -222l23 -81l-11 -12l11 -58v-23l-23 -35l-12 12h-198l-46 -12q-221 128 -221 454l11 11l47 -11q105 0 209 70q105 0 105 58q70 0 70 70 h12zM1085 636v-46q35 0 35 -47h23q0 47 47 47l35 93l-24 23h-11q-53 -70 -105 -70zM294 159l11 -12h117l139 12q47 -58 47 -93h-12l-58 12l-151 -24l-105 93zM123 -149q83 0 130 -35q35 23 142 35l35 -35l23 23l59 -23l154 23l70 -23h59l95 23l11 -11l59 11h83l12 -11l11 11 h36l35 -23l118 12l71 -12l70 23l24 -23v-94l-12 -12v-12l-59 12h-59l-141 -12l-118 12l-82 -12l-130 24l-24 -24l-259 24l-271 -12h-259l-24 23v24q0 35 141 35l-23 36z" />
<glyph unicode="R" horiz-adv-x="1452" d="M350 1727l23 -23h34l35 12l57 -12h58l92 23l46 -34l103 11h23v-11l81 11h184l69 23q143 -11 161 -34l46 34q126 -11 126 -34v-104h-11l-92 12l-115 -23l-69 11h-12l-80 -11l-357 23l-103 -12l-115 12l-46 -12l-115 12l-92 -12l-35 12l-69 -23l-103 11h-58l-34 35v34 q0 40 230 58l57 -12zM459 1451h69l34 -35v-34q-17 -35 -161 -81q0 -34 -126 -34h-161l-58 11v35h23v11q-80 0 -80 81l34 11l207 -23q219 23 219 58zM700 1428l35 -35l-12 -80l23 -81h23l12 58l-35 80l12 12h11l46 -35q64 58 127 58q253 -127 253 -276l-12 -219l-138 -138 h-46l-34 12l-58 -12h-149l-35 23l35 184l-23 150l11 46q-11 92 -103 161v23zM562 1313l12 -12v-172l-35 -173q46 -86 46 -172q-28 -224 -57 -299l11 -69l-11 -35q23 0 69 -253q34 0 57 -46v-23l-34 -34h-35l-149 -12l-115 23l-276 -34q-58 17 -58 34v12q0 69 104 103 q52 138 80 138v35l-46 11l12 58v11q-46 0 -46 92l11 58l-11 149l11 81l-11 11v12l23 161v172l-12 81h334q46 0 126 92zM700 761h23q29 -35 58 -35v-11q0 -23 -35 -23l-11 -12v-11h138l80 69l12 -12v-11l-35 -35v-11q224 0 276 -150l12 -57l-12 -35l12 -34l-23 -92v-58 l34 -34h23q40 0 81 34h23l11 -46q-52 -115 -230 -207l-34 12l-58 -12q-276 64 -276 242l12 46q-17 69 -35 69l12 115q0 161 -92 161l-12 57v12zM873 209v-69h11q0 103 161 103q0 46 81 46q34 0 34 23v35h-138q-63 0 -69 -58q-51 0 -80 -80zM981 -152h46q23 0 23 -34h46 l-12 11v12l12 11l322 -34l23 23h11l23 -23v-81l-23 -23h-34l-46 12l-92 -23l-483 23l-69 -12l-161 12l-150 -12l-34 12l-12 -12h-11l-35 12l-103 -23q-104 6 -104 23l-57 -12h-69l-23 23v46q69 58 218 58v-12q0 -46 58 -46l241 46l69 -11l81 11l46 -11l264 23l12 -12z" />
<glyph unicode="S" horiz-adv-x="1107" d="M159 1725l103 -11l58 11l11 -34l12 11h11l34 -11l230 23l91 -23q126 11 149 34l69 -34q155 11 172 34h11l23 -23v-92l-23 -22h-160l-126 -12l-103 23l-69 -11l-12 11l-57 -11h-91l-46 11l-35 -11l-34 11l-34 -11l-103 11l-253 -11l-11 11v57q0 17 183 69zM423 1461 l34 -34l35 12l11 -12v-23q0 -63 -126 -137l-23 -92q80 -183 264 -183l80 -46v-23q-17 -69 -80 -69l-104 -11l-45 11v-23q68 0 68 -68l-11 -12h103q0 46 80 46l69 69q80 0 183 -115v-57q35 0 35 -23l-12 -34q35 -58 35 -115v-11q-23 -218 -115 -298q-92 -172 -218 -172 q-97 -34 -183 -34l-23 57q0 46 183 103v126q0 183 -229 206l-309 172l-126 275q29 0 34 80l-23 80l115 115h-46v11q34 63 241 172h46q0 57 57 57zM915 1450h35l23 -92v-57l-23 -114l34 -149q-17 -52 -69 -81h-22q-23 0 -35 138q-80 143 -298 252v23q0 34 115 57 q92 -6 149 -57h23q68 46 68 80zM91 556q68 -57 68 -171q23 0 92 -172q57 0 183 -126v-35q-11 -34 -68 -34h-23l-69 46l-12 -12h-11l-57 35h-12q-51 0 -103 -69h-11q-29 0 -69 218l11 126v91q0 58 69 92zM927 534q0 -46 -80 -58v-23l68 -46q69 46 69 92l-11 35h-46zM113 224 q0 -34 -80 -57v-12l35 -34h80v80l11 12v11h-46zM10 -144l12 -12h11l35 12l172 -34q91 5 91 34l35 -12l91 12l241 -23l252 23l11 -12v-11q0 -52 -68 -69v-11l11 -12v-11l-57 -23l-138 23l-46 -23l-297 23l-115 -12l-11 12l-58 -12h-183l-23 23v92q0 23 34 23zM1099 -167h34 v-92q0 -28 -149 -34v46l12 11q0 23 80 23q0 46 23 46z" />
<glyph unicode="T" horiz-adv-x="1358" d="M71 1725h12l113 -11l-11 -57h11l285 11q0 46 23 46h91l34 -23h12l79 11l23 -23l69 23h113l69 12l57 -12l91 23h91q57 0 103 -34l34 23l22 -23v-80l-22 -23l-160 12l-262 -23l-114 23l-125 -23l-114 23l-114 -12l-114 23l-136 -23l-148 12h-103v68q0 23 57 23zM45 1454 l160 -11l45 11q92 -46 92 -125q-114 -46 -114 -171q-29 0 -57 -205l-46 -34h-34q-40 0 -57 125v91q0 23 34 23v45q-34 0 -34 23t46 23v34q-80 6 -80 148zM809 1431q56 -17 56 -57q0 -171 -68 -171q-57 -57 -182 -57q-171 0 -171 46l-11 137q51 0 273 91zM991 1431v-23 l-34 -11l-12 11v12l12 11h34zM1184 1431q46 -85 46 -171l-23 -102l12 -103q-35 -136 -57 -136h-35q-17 0 -45 79l11 103q0 85 -91 194l-11 34l136 91zM831 1146h34q0 -56 -22 -56l22 -160l-22 -80l11 -34l-23 -45l12 -46l-12 -182l34 -217l-22 -148h11l103 -68v-23l-69 -68 l-57 11l-125 -23l-80 23l-102 -23l-91 46l-91 -11l-35 11v23q91 68 91 216v103q35 68 69 68q0 17 -57 34v23l23 46q-12 91 -57 148l34 45l-23 274q46 11 91 57h23v-12l-11 -11v-12h170q35 46 149 46zM649 -128q34 -23 91 -23q0 -40 -34 -80l11 -34l-11 -11h-68l-46 11 l-11 -11h-12l-11 11h-11l-80 -11l-46 11l-102 -11h-34l-103 11l-68 -23q-137 12 -137 35v45q0 23 103 46l91 -12l45 12l80 -12l91 34l68 -34q137 6 194 46zM1298 -140l91 -34v-102h-22q-80 0 -126 -23l-68 11l-68 -11l-80 11l-80 -11q0 23 -34 23l-11 -12l-57 12l-80 -12 l-11 12v11q0 46 57 46l34 11q17 46 34 46h102l126 -23h34q28 23 159 45z" />
<glyph unicode="U" horiz-adv-x="1316" d="M-31 1728q80 0 80 -23l57 12h92l34 -23q120 0 160 34h92l23 -23l11 12h58q23 0 23 -35l194 35l69 -23l103 23l34 -23h23l80 23l69 -12l23 23l69 -11l34 11l46 -34v-80l-23 -23h-149l-263 11l-218 -11l-46 11l-57 -11l-23 23l-297 -35l-69 12h-92l-46 -12l-68 23l-35 -11 l-11 11v103zM553 1455q0 -92 -80 -115q-23 0 -58 -46h-114l-172 -11v11q0 23 35 23v35h-69q-86 0 -92 34q17 46 35 46h34l286 -12zM1091 1443q57 -46 114 -46l12 -11v-11q-149 -184 -149 -332l-23 -35l34 -137l-34 -218q34 -57 34 -114q0 -281 -171 -492l-35 -12 q-149 6 -149 34v35l184 103l68 206v11l-34 229q6 241 46 241l-23 206q57 0 91 57v46h-11l-34 -23h-35q-28 17 -91 126q-63 0 -80 46q0 23 286 91zM599 1375h11v-23l-46 -35v23zM530 1306h23v-12q-35 -68 -57 -240l22 -126l-11 -103l11 -69l-22 -80l11 -149l-160 -91 q-92 0 -126 -57q-80 -6 -80 -23q5 -29 57 -46v-34h11q0 45 80 45l12 12l23 46q109 0 172 68h22v-80q0 -217 126 -240v-69q0 -17 -194 -46h-12q-126 92 -252 115q-103 74 -103 263l12 229q-29 0 -35 80l23 321l-34 148q0 81 92 81l263 -12q74 0 126 69zM599 -143h45l35 -23 l68 11q29 -23 184 -34l114 34l34 -11l12 11h11l69 -23h103l34 23h12l23 -23v-80q0 -23 -35 -23l-137 -11l-229 11h-11l-252 -11l-149 11l-46 -11l-57 23l-57 -12h-92l-126 -11l-11 11h-12l-34 -11l-12 11l-57 -11h-11q-58 0 -69 34v69l149 23l103 -12h103l23 23l103 -23 q57 35 172 35z" />
<glyph unicode="V" horiz-adv-x="1316" d="M221 1725l136 -23h57v-34q-108 0 -136 -68l-228 -34q-79 28 -79 45v23q6 17 250 91zM754 1725l57 -23l114 12q91 -6 91 -34l79 11h159l34 23h46v-91q-29 -46 -137 -46l-340 12l-12 11v11l34 46h-79v-11l23 -35q-57 -34 -125 -34l-12 12l-136 -23l-170 23v22h79 q125 0 159 80q0 17 136 34zM1072 1452l34 -11l46 11q51 -22 57 -45v-23q-17 -102 -103 -102q-102 -96 -102 -181q0 -57 -68 -228q0 -119 -57 -329h-34v12l23 68q-45 62 -45 125v158q79 46 79 296v22l34 12v22q-62 0 -136 103v11l45 57h46zM368 1430l273 -12l11 -11v-57 l-68 -79v-23l23 -23l-12 -79q40 -267 125 -363q40 -97 69 -352l22 -34q-28 -250 -102 -341q-28 -28 -170 -45l-114 34v79q0 68 -45 125v23h91v11q-52 0 -91 34l34 57q-80 0 -80 57l-125 352q74 56 137 56v23h-114q-113 193 -113 375l-125 102v11q0 23 56 23l12 34l79 -11z M857 1350v-22l34 11v11h-34zM323 771v-11h148l68 45h-114q-51 -34 -102 -34zM561 692h34v22h-11zM141 -150l91 -12l68 12l125 -12l91 12l11 -12v-11q-62 -46 -102 -46v-34h68q46 0 216 91l102 -11l114 11l57 -22l249 34q103 -17 103 -46v-91h-80l-45 12l-46 -23l-125 11 l-91 -11l-227 23l-283 -12h-23l-23 23q-136 -23 -341 -23h-68v34h34v23q0 23 -34 23v23zM62 -196v-34h79v23z" />
<glyph unicode="W" horiz-adv-x="1812" d="M739 1728l92 -23h162l23 -23q-162 -29 -162 -46q0 -29 -173 -58v-11l-81 11l-69 -11l-46 11l-162 -11l-92 11l-47 -11l-46 11l-92 -11q-81 17 -81 46v81l23 23h23l35 -35l11 12l162 -23l243 34h115q23 0 23 -34q41 0 139 57zM1801 1694h35v-93q0 -23 -35 -23l-242 -11 l-150 11l-35 -11l-104 11h-23l-277 -11l-47 11v23l255 12h381q46 0 242 81zM1027 1440q41 0 139 -277l46 -47l-23 -127q0 -52 81 -231l23 -92l-12 -12v-11l35 -150l-11 -69l11 -197q0 -92 -185 -242q-184 34 -184 184q-41 64 -58 220l11 46q-127 202 -127 289q197 29 197 46 t173 58q0 34 46 34v47h-81q-23 -58 -185 -58q0 -58 -103 -58h-35l-23 23v220l69 288q92 116 196 116zM1663 1428l34 -34v-12q-17 -40 -138 -104q-139 -358 -139 -496l-58 -70l-69 150l12 12h69v23l11 81l-46 11l23 104l-11 35q69 0 69 69q0 104 -162 150v12q0 17 93 46 l69 -11l46 11l70 -23q63 0 127 46zM369 1417q98 0 139 -35h34q58 0 58 35h23q23 0 46 -81q-52 0 -80 -127q57 -179 138 -612l35 -70q-46 -254 -116 -450q0 -69 -34 -69q-202 0 -243 127v23l12 81q-93 109 -93 150l-11 69l11 93v11q35 0 35 35l58 81q-127 0 -127 34l-93 173 v12l35 46v35q-81 0 -81 150q-29 23 -35 150v35q-80 23 -80 46v11l23 24l11 -12l58 12h35l57 -12q0 35 185 35zM508 770v-23q92 0 92 -58h58l11 58l-11 46h-127zM1801 -142l35 -35v-58q-12 -34 -81 -57l-127 11l-127 -11l-12 11h-11l-104 -11h-12l-46 11l-35 -11l-150 11 l-11 -11h-12l-46 11h-46l-23 -23l-139 12h-92l-104 -12l-35 23l-81 -11h-46v34h-81l-69 -46l-219 23l-162 -11v92l23 23h162l69 23l46 -11l93 11q52 -58 138 -69l35 11v12q-104 0 -104 23l46 23l162 -11l34 11q122 -11 139 -35q104 35 231 35h23q35 0 35 -46l11 11h12 l369 24l58 -12l231 12z" />
<glyph unicode="X" horiz-adv-x="1364" d="M557 1728l35 -35h92l35 23l92 -23l127 23l35 -11l69 11l23 -23l-57 -23v-46h69q0 52 300 81l12 -12v-92l-23 -23l-81 11l-81 -11l-69 23h-58l-58 -12l-23 23q-69 -5 -69 -34l-254 23l-81 -12l-12 12l-58 -12h-265q-58 0 -58 -23l-196 23h-12l-23 23v58l69 46 q122 -11 150 -34q104 11 128 34h69l69 -11zM407 1451l115 -58h24q40 0 80 35h12l23 -23v-35q-35 -46 -35 -104l104 -231q0 -93 81 -162l127 -300q58 -110 104 -116q70 -236 197 -335l-58 -92l-81 11h-35q-40 -34 -80 -34q-47 0 -47 23l12 46l-35 46h-127l23 -23l35 12 l11 -12v-34l-46 -47h-104q-86 0 -161 70q0 23 57 23v104q0 86 -115 196q-41 58 -104 266q-17 0 -81 127l23 23v12q-69 40 -127 219q-81 75 -81 127v104q-115 17 -115 104q69 17 69 35l81 -12h23zM915 1439l58 -23l81 12l69 -12l12 12h11q46 -18 46 -35v-12q0 -86 -138 -115 q-35 -23 -127 -196l-81 -70h-12l-46 46v12l23 46l-11 46l34 58v81l-57 69v23q0 18 138 58zM338 492h11q35 0 58 -104q-98 -104 -104 -196q139 -104 139 -127q-18 -47 -58 -70q-64 35 -127 35l-127 -12q-104 12 -104 47v11q219 121 219 220q81 23 81 69q-58 17 -58 35 q41 86 70 92zM361 -161l115 -35l116 23l58 -11h150l92 23l69 -23h12l139 23l208 -12l57 12l12 -12v-104l-23 -23l-12 12l-81 -12h-11q-41 0 -81 35h-12q0 -35 -23 -35h-69l-139 12l-104 -12l-127 12l-196 -12l-116 12l-80 -12l-70 12l-104 -12q-173 0 -173 35v46l23 23h231 q23 23 139 35zM1204 -208q6 -57 23 -57q127 0 127 57h-150z" />
<glyph unicode="Y" horiz-adv-x="1374" d="M1035 1727q52 -23 58 -46l242 46l58 -35l-11 -46l11 -57l-11 -12h-12l-115 12l-47 -12l-103 12l-104 -12l-12 12h-11l-69 -24l-104 12l-127 -12l-185 24l-219 -24l-69 12l-58 -12q-173 6 -173 35v46q0 41 312 58q0 -29 57 -35l104 23l58 -11l80 23l70 -23h34v23h58v-12 l-12 -11v-12h70v12h-23v34l57 -11h116zM615 1439h11q23 0 35 -116l-46 -23q0 -144 196 -554q11 -184 57 -357l-34 -139v-11q0 -58 115 -127q-34 -104 -58 -104l-230 23l-116 -35q-69 0 -69 47h-104l-80 -12l-12 12v34q0 23 46 23l58 46l11 35l-23 138q0 116 81 116l-12 58 v11l24 35q-70 0 -70 80q-57 0 -92 104q-17 6 -138 381v12q40 0 57 57q93 0 93 46q5 58 57 58v12h-92q-52 -23 -127 -127h-23q-23 0 -104 161l-34 35l23 23l11 -12h12l11 12h12l92 -12q104 58 139 58l115 -23q190 6 208 35zM1191 1439h35q23 0 35 -70q-18 -52 -162 -127 l-161 -392q-35 0 -35 -46h-35v81l-23 46q104 225 104 300q0 40 -127 127v11q0 23 242 58l58 -12zM626 262q-23 -29 -23 -81q-46 0 -46 -46l-69 -58v-23h34q58 0 116 92q5 47 46 47q-12 51 -58 69zM9 -163l81 -23l208 23l34 -34l35 23l23 -23l150 23l150 -12l127 12l69 -12 l138 23l58 -23l104 12l138 -12l81 12v-92l-11 -12v-11l-162 11l-196 -11l-35 11l-427 -23l-115 12l-35 -12l-103 12h-162l-46 -12q-127 17 -127 58v57z" />
<glyph unicode="Z" horiz-adv-x="1156" d="M313 1730h81q23 0 23 -46l58 34l34 -23l197 12h69l104 -12l92 23l115 -11l23 23h58l23 -23v-81l-23 -34l-115 11h-46l-47 -11l-11 11l-58 -11h-46l-127 11l-150 -11h-104l-46 -12l-115 23l-104 -11l-127 11l-92 -11l-12 11v46q0 35 115 58h197zM134 1441l300 -46v-12 l-92 -92h-254q-23 0 -23 58q-58 0 -58 34q0 52 127 58zM630 1406l104 -34l196 34h47l34 -23l-81 -300q-115 -150 -127 -334q-69 0 -127 -220q-40 -28 -138 -311q-29 -12 -81 -219h-23l-346 34l-46 -11q-46 0 -58 92q12 81 35 81h11v-23h12q0 80 34 80h58q0 47 81 81 q0 35 92 35q75 69 139 69q0 69 57 69l23 70v11l-46 23q-75 -86 -219 -185h-81l-23 24v11q12 52 173 323q41 196 127 335l12 35l-12 11v12q23 127 104 196zM284 1279h23v-11q-104 -92 -104 -150l-138 -139h-23l-35 24q0 230 81 230l35 12l11 -12h12q86 0 138 46zM607 1026 v-12l23 -23h70q0 69 115 69q0 58 92 58l23 58h-11q-150 0 -231 -70q-35 0 -81 -80zM573 899l11 -35h35v69l-12 58q-34 -6 -34 -92zM526 714l-11 -46l11 -58h12l23 23l-23 81h-12zM930 460q41 0 81 -35l-23 -138l46 -254l-138 -34h-35l-46 11l-92 -23q-197 12 -197 46v23 q47 46 266 139q81 46 81 184q34 81 57 81zM564 -155l23 -23l58 11q58 0 58 -23l115 12h208l69 -12l69 23l12 -11v-92l-23 -23h-12l-81 11l-104 -11h-34l-208 11l-150 -23l-11 12v11l-174 -11h-57l-46 11l-47 -11h-103q-150 0 -150 34v35q0 23 115 46l58 -12l11 12h12l69 -23 h46v11h-46v23h12z" />
<glyph unicode="[" horiz-adv-x="236" d="M250 1728l23 -23v-91q0 -23 -34 -23l-11 11h-12l-68 -11l11 -46q0 -57 -137 -57l-23 23q0 114 69 114q0 57 148 69zM125 1419h11v-91l12 -92l-12 -45l12 -160l-12 -57l12 -126v-160l11 -69l-11 -57v-46l11 -68l-23 -92l12 -137l-12 -299q6 -80 23 -80l103 12l11 -12v-91 q0 -35 -114 -35q-149 0 -149 35l46 103v11h-11l-12 -11h-11l-12 11l12 57l-23 208l23 80l-12 57l12 11v12l-12 34l12 126v45q0 23 57 23v35l-23 68q-46 0 -46 23v23l12 114l-12 46l12 69l-12 91l58 23v11q-58 0 -58 92l-11 11l23 23l-12 80v137h23v-34h23q0 34 69 91z M159 -206v-22h23l57 11v11h-80z" />
<glyph unicode="\" horiz-adv-x="596" d="M451 1728q183 -6 183 -46v-68l-23 -23h-46l-23 23v11q0 23 35 23v23h-92l12 -80l-12 -12l-80 23l-91 -23h-115l-171 12q0 34 252 46q0 91 171 91zM-29 1717h46l45 -12l35 12v-35q-115 0 -115 -68h-11l-23 23v57zM159 1513h12q34 0 68 -308q17 0 35 -115q45 0 57 -228 l-12 -46l115 -343v-23l-12 -57q57 -29 103 -171l-11 -46q11 -86 57 -137l-12 -12v-11l12 -57l-92 -35q-34 0 -80 80l12 103q-80 120 -149 412q-23 5 -46 57q0 114 69 114v12q0 17 -69 45v12l23 34q-103 0 -103 149l-23 80l12 91l-114 343l-12 12v11h23q97 0 137 34z M-35 -146l80 -23l80 23l91 -11v-12q0 -17 -91 -68v-46h-114q-58 0 -69 34v80zM605 -157l23 -23v-92l-12 -11v-12l-57 12l-57 -23l-68 23l-46 -12l-80 12l-103 -23l-46 34v12h23l194 80h195z" />
<glyph unicode="]" horiz-adv-x="260" d="M151 1734h11q29 0 34 -114l-11 -12v-11l11 -57l-11 -92l11 -11h12l-23 -217l23 -115l-23 -68v-92l11 -114l-11 -91l11 -81l-11 -45l11 -35l-11 -102v-35l11 -91l-11 -69l11 -274l-11 -69l11 -68l-11 -160h-11l-138 -12q-91 6 -91 35v45q6 35 91 35h35v34h-12l12 69 l-23 377q23 0 23 34l-23 137q17 57 34 57h57v35l-91 45l11 172v57l-11 46l23 68l-12 103v69q0 23 57 23v11l-34 46q12 45 46 45v12q-69 0 -69 183v11l12 12v11l-23 114l11 12l-68 11l-35 -11l-11 11v115h23l23 -23q137 11 160 34z" />
<glyph unicode="_" horiz-adv-x="980" d="M410 1734q205 0 205 -57l34 -57l-23 -23h-22l-148 -11q-91 6 -91 23l-80 -12h-239q-57 0 -68 35v56l11 12v11h23v-11l250 23l23 -23h46q40 34 79 34zM843 1734l159 -11v-103l-11 -11v-12l-91 12l-205 -12v23q0 17 159 57l-23 23h-79v23zM925 334h11l12 -11h11l-11 -80 v-91l-35 -114h-102l-148 -11l-57 11l-182 -34l-79 11l-12 -11h-11q-51 23 -148 23h-114q-28 0 -34 45l11 34q-34 0 -34 126q23 0 46 68l57 11h34q23 0 23 -34l34 11l11 -11h11l12 11h11l57 -34h11q52 0 114 69h12l307 -35q153 23 182 46zM572 106v-22h46l-23 22h-23z M69 -166h34q23 0 23 -68l91 45l11 -11l46 11l409 23l148 -23l103 23l68 -11v-91l-23 -23h-409l-69 11l-57 -11h-159l-68 11l-57 -23l-182 23v57q0 23 57 23z" />
<glyph unicode="a" horiz-adv-x="1416" d="M643 1727q312 0 312 -58h23q44 46 209 46q0 -25 93 -46q119 12 150 35l12 -12v-69l-23 -23h-70l-162 -24l-324 24l-81 -12l-47 12l-11 -12h-24v12l-370 -24l-104 24l-12 -12l-58 12l-162 -24l-46 35q0 93 173 93l232 11l23 -23h23l151 23l11 -11h12l46 11v-23h12z M921 1440l11 -11l-11 -81q6 -69 69 -139v-174l116 -359v-12l-12 -34l70 -209l-12 -69q32 0 47 -116l-12 -70h12q92 -33 92 -104v-23l-35 -12l-57 12q-77 -35 -163 -35h-34l-81 23l-209 -23q-53 23 -58 46q58 73 58 116l-23 81l11 12v12l-23 69l12 46h-12l-139 -11 q-116 9 -116 35v69l24 23l11 -11l-11 -12v-58h34v12l-11 34h11l35 -11l35 11l46 -11l35 23l-93 510l-11 69l23 23v35q-70 0 -70 116v116q0 23 70 35v11l46 -11zM457 1128v-58l12 -93l-70 -255l-69 -301l11 -58q-23 0 -23 -92l-185 -82h-12l-23 24q142 184 162 312l-11 12v12 q0 81 69 81v34h-23v24l35 46l-23 35q52 118 81 289q29 0 34 58l12 12h23zM700 1058q0 -23 -46 -23l-11 -12v-11h23l139 23v23h-105zM782 966v-12l57 -12h128v24l-35 34zM283 201h12q0 -61 139 -93v-23q0 -63 -58 -92h-116l-81 23l-139 -23q-46 48 -46 92v12q151 46 232 46 h23q8 58 34 58zM515 -135q128 0 128 -58v-23l208 58l70 -12l92 24q128 -12 151 -35h23l35 23h11q43 -35 81 -35l93 47h12l23 -24v-81q0 -34 -243 -34h-35l-47 11l-46 -11h-11l-24 23l-301 -35l-69 12h-93l-46 -12l-47 23l-69 -11l-197 11l-243 -23l-35 12v23l12 11l-12 12 v35q0 30 208 46l58 -12l128 12q0 -23 35 -23q150 8 150 46z" />
<glyph unicode="b" horiz-adv-x="1389" d="M231 1726l70 -23h115l220 11l58 -23l243 23l46 -11l58 11l69 -23h35l92 23l81 -11l104 23l12 -12v-92l-23 -23l-12 11h-12l-196 -23h-46l-47 -11l-115 34l-81 -23l-127 23l-81 -23l-93 23l-34 -23l-139 12h-185l-69 11l-58 -23l-35 12l-58 -23q-69 27 -69 46v46 q0 27 277 58zM234 1444h35l35 -23h23l69 12l93 -35l46 11l12 -11h11l-35 -139q35 -76 35 -162l-11 -277l46 -289q-46 -117 -46 -278q34 -11 34 -69v-23q0 -127 -162 -127q-87 11 -115 34l-12 -11l-58 11h-34l-127 -80h-35v23q14 31 208 150v23q-46 0 -46 58h-23 q0 -46 -23 -46h-24q-23 0 -34 104l23 162v11q0 98 -23 150l11 104l-23 81l23 93l-11 81l46 11l-12 81l24 35q-58 15 -58 35l11 34l-11 70l11 11h12q0 43 -116 70v11q0 63 231 104zM755 1444h81l138 -23v-35l-185 -46l-46 -46l-116 23q0 127 128 127zM1044 1375h11 q103 0 197 -324q0 -162 -301 -277v-12q143 0 197 -127q92 -34 92 -116l23 -208q-23 0 -58 -127q0 -63 -219 -139l-139 23l-173 -11l-23 35v11q0 23 92 46q58 76 58 405q0 39 -150 173l-24 58q162 0 162 127l12 93q-35 59 -35 115q0 135 70 162q0 35 231 35l-23 35v23z M200 1213v-23q92 0 92 -58h70q5 46 34 46h104l12 58h-289zM824 277v-12h58q0 58 69 58l12 11q0 42 69 58q0 58 150 58l12 12l11 57l-11 35q-39 0 -139 -58q-92 0 -92 -58q-32 0 -127 -92zM604 -151l104 -46q187 11 232 34l127 -11h23l69 11l70 -23h23l69 12l58 -12l23 23h12 l23 -23v-92l-12 -12v-11l-81 11h-115l-47 12l-69 -23l-58 11l-127 -11l-277 11h-47q-135 0 -185 -23l-69 23h-231l-46 -11q-116 11 -116 34v46q0 27 162 47l35 -12l23 23h104l11 -11h12l-12 -58v-12l12 12h11l47 -12l69 47q134 11 173 46z" />
<glyph unicode="c" horiz-adv-x="1250" d="M1048 1737l68 -34h23q60 0 103 34h11l23 -23v-91l-23 -23h-68l-46 12l-45 -12q-46 0 -46 23l-285 -34l-68 11h-80l-68 -11l-34 23l-80 -12l-205 12l-216 -23l-35 11v80q0 27 103 34l11 -11h12l68 23l68 -12l126 12l22 -23h12l182 23h80l91 -23l125 23l69 -12zM582 1437 l22 -22v-91l-102 -103l-11 -171l22 -91q-57 -131 -57 -194l46 -148l-11 -125l22 -148l-34 -102q68 -88 68 -160l35 23h11l23 -23q-12 -68 -34 -68q-80 15 -80 34l-80 -11h-34l-251 159l12 11v12l-12 34h183l57 34v23h-23l-34 -23q-114 8 -114 68h-57q0 -34 -23 -34h-23 q-26 6 -79 171q45 6 79 80l-11 45q91 0 91 57q92 0 148 69h80v34l-12 11v12q-148 0 -182 -57q-56 0 -114 -69h-34l12 -57h-35q-22 0 -45 217q0 99 114 193v23l-12 80q54 0 183 159l102 35v22h-23v12q23 45 69 45l34 -11q71 6 114 45zM775 1415l148 -80h12q102 17 102 68h23 q34 -11 34 -68l-11 -46l23 -170l-12 -126l23 -79q-27 -69 -80 -69q-4 31 -57 46q-65 319 -182 319q0 79 -80 79l-45 35v22l79 46zM1083 424l23 -23q0 -179 -103 -216q0 -61 -194 -126l-68 -68h-45q-46 18 -46 80l239 114q62 107 194 239zM277 -161l22 -23h114l171 11l11 -34 l57 23l69 -11l11 11v11l148 -22l194 11h34l34 23h34q23 0 23 -34h23l34 22h23v-102l-23 -23l-68 11l-160 -11h-34l-57 11l-68 -11h-34l-69 11l-11 -11h-12l-68 11h-11l-46 -11l-80 11h-148l-102 -11l-46 11l-148 -11q-125 0 -125 46l11 34l-11 11q68 15 68 34l80 -11z" />
<glyph unicode="d" horiz-adv-x="1380" d="M265 1725q114 -11 114 -34t-34 -23v-11l22 -23h12q113 0 113 34q0 46 23 46h34q23 0 23 -34h56l12 34l68 -12l113 12l57 -34q195 11 239 34l102 -12h22l103 12q68 -15 68 -34v-69q0 -22 -136 -34l-57 12l-114 -12l-306 12h-12q-132 0 -181 -23l-68 23h-171q-22 0 -22 34 h-12l-56 -46l-137 23l-102 -11h-45l-23 22v46l170 57l68 -23q57 8 57 34zM129 1433l11 -11v-12q-5 -31 -102 -91h-11l-46 46q0 35 148 68zM538 1433h11l23 -23v-11l-34 -57l11 -284l-34 -91v-11l45 -136l-45 -125l45 -79l-34 -262l34 -56v-23l-11 -68l11 -12v-11l-11 -68 v-23l11 -56l-193 -35l-204 12l-79 -12q-80 9 -80 80l136 68h12q-50 61 -80 182l12 181v68l-23 103q76 0 136 68q114 0 114 56q96 0 124 57q69 0 69 68h-12q-98 0 -147 -68q-58 0 -103 -57q-92 0 -147 -56h-34v11l45 261l-11 80l11 34l-22 159h11q57 0 136 79l57 34h11 l80 -23q103 0 159 46zM708 1433h23q139 -114 227 -114v-22h-23v-23h11l57 11q95 -89 159 -272q53 0 68 -170l-11 -125l11 -12v-11l-11 -45l11 -46q-52 -245 -159 -374q0 -25 -102 -80q-58 -102 -193 -102l-91 -34q-57 0 -57 102q0 31 114 45v23h11l-11 57v136l-11 114 q72 72 90 136q35 0 35 23q-22 51 -46 56l-34 -34l11 -45h-45v57q0 56 -23 56l12 57v46h11l11 -12h12l11 12v11l-34 57l23 159l-80 261q-45 0 -45 22v23zM992 1206l-12 -12v-11h57v11zM413 161v-56l22 -23h12v23l-12 56h-22zM379 -149l11 -34h23l34 22h23l34 -22h147l46 11 l34 -11v11l22 23h91q41 -49 148 -103h56v23q0 23 -56 23v57l91 -12l124 12l69 -23h45l79 11l12 -11v-91l-23 -34l-57 11h-215l-69 12l-56 -12l-57 12l-11 -12v-11l-171 23l-56 -23l-125 11h-46l-56 -11l-69 11h-147l-57 -11l-68 11h-34l-114 -11l-11 11v80l23 23h79l68 11 l34 -11l103 11l34 -11q0 22 68 34zM935 -161l23 -22l-12 -12h-11l-23 23l12 11h11zM1117 -183v-35h22v12z" />
<glyph unicode="e" horiz-adv-x="1204" d="M1064 1742l103 -11h34l23 -23v-81q0 -22 -91 -34v12q0 28 46 34v57l-172 -69q-126 0 -126 -34l-138 12h-91l-69 -23l-103 23l-206 -23l-35 23l-80 -12h-11l-46 12l-34 -12q-115 7 -115 34v35l23 23l11 -35h12q34 46 126 46v12l114 -12h264l160 23l103 -11zM723 1452 l12 -12v-11l-23 -69v-12l23 -22h23q0 48 46 91l114 -11l126 11l12 -11v-92l11 -252q-59 -57 -103 -57l-80 114l11 35l-126 114v12h-34l-46 -12q-57 16 -57 80v58q0 30 91 46zM288 1429l183 -58l58 35l57 -69v-57q0 -39 -34 -80v-46l11 -115q0 -94 -92 -126l-68 -46 q-103 0 -138 -57l-80 -11v-12q57 -48 57 -80h12q0 51 103 57q0 46 80 46l103 69h12l57 -126l-80 -275l11 -46l-11 -11v-12l23 -80l-12 -11v-12l12 -11v-35h-12l12 -80v-137q0 -27 -207 -46l-103 57h-11l-138 -46q-73 30 -80 58v34q0 30 80 46l-11 57l34 103l-34 115 q23 44 23 126v68l-23 172l23 126l-23 126l23 161q-1 39 -126 148q130 81 309 81zM792 1028h35q34 -140 68 -493v-46l-57 -57h-11q-84 60 -149 206l-46 46v12q0 63 91 103l23 45l-11 12v11zM1033 455q30 0 57 -160l-23 -69v-183l-34 -35l-184 35l-206 -23v11q14 103 35 103 l57 -11q0 46 46 46l34 -12q69 55 138 218zM1188 -144h11l34 -34v-92l-23 -23h-91l-103 11l-12 -11l-114 11h-12l-297 -11l-12 11h-11l-58 -11l-114 23l-92 -23l-80 11l-69 -11l-46 11l-91 -11l-46 34l11 12v34l-11 35h11l58 22h46q114 0 114 -34v-11h23v11l-11 12v11l34 11 l126 -11l11 11h12l137 -22l92 22l11 -11l58 11h11l34 -22l46 11l12 -11h11l12 11h11l69 -23q51 23 149 23h114z" />
<glyph unicode="f" horiz-adv-x="1180" d="M1 1727l136 -34l137 11l80 -11l11 11h12l68 -23l216 12h91l69 11l57 -11l45 11l91 -23h57v12h-34v11l12 12v11q170 -8 170 -34v-91l-11 -12v-11l-34 11l-125 -11l-126 11l-193 -11l-114 11l-80 -11l-68 11l-114 -11l-148 11l-12 -11h-11l-11 11h-12l-45 -11 q-126 0 -126 46l23 45l-34 34zM932 1436q114 -12 114 -34v-12l-12 -57l23 -330l-34 -23q-80 0 -80 80l34 34v11h-57l-79 103q-205 86 -205 171l125 34l91 -11q80 18 80 34zM169 1424l113 -22l12 11h11q123 -8 148 -34h46l11 45h34l12 -79l-12 -148q31 -38 46 -194 q-34 0 -57 -239l11 -34l-11 -103v-11q4 -80 23 -80l-12 -57v-137l12 -68q-15 -80 -34 -80h-160q-41 -34 -80 -34v-11l160 -12l171 12l45 -69q-19 -51 -68 -79h-68q-69 45 -137 45h-91l-171 -45q-125 0 -125 125q91 0 91 68l57 12v11q-46 0 -46 34v12q0 26 57 34l12 -12v23 q-74 0 -92 205l23 103l-11 79l11 12v11l-11 46l23 34l-23 68q19 0 34 69h34v34l-57 102l34 69q-22 24 -22 125q-44 45 -103 45l-11 12v34zM408 1288q0 -35 -57 -35v-11h57l23 23h68v23h-91zM818 1026h23q23 -5 45 -57h11l-11 -80v-11l11 -148l-11 -46l11 -148l-68 -57h-34 q-24 5 -46 57l12 46l-91 113l34 46q-68 0 -68 57q125 30 125 114q0 80 45 80zM226 992v-23h34l-23 23h-11zM408 866v-23h34l-23 23h-11zM226 251v-23h79v23h-79zM912 -140q102 -11 102 -68l46 34l11 -11h12q44 23 125 23l11 -12v-102h-11l-91 -12l-228 23l-137 -23l-57 12 l-11 -12l-57 12h-148q-57 -3 -57 -23l-193 23h-183l-57 -12l-11 12v68q0 28 102 34l103 -11l80 34q136 -11 136 -34l114 11h160l125 12l68 -23z" />
<glyph unicode="g" horiz-adv-x="1310" d="M186 1735h92q34 0 34 -57l12 11h57l34 -23h12v12l-12 34l35 23q91 0 91 -46l80 35l57 -23l81 11l125 -11q189 0 229 34h23l46 -11l34 11q0 -92 103 -92l23 -22q0 -28 -103 -35l-57 23q-69 -8 -69 -23l-114 12h-172l-183 11l-34 -11l-103 11l-35 -11l-45 11l-103 -11 l-69 11l-149 -11h-34q-84 0 -92 34v46q0 27 92 34l92 -11q0 34 22 34zM472 1441h12l91 -46v-23q-103 -154 -103 -217l12 -46l-12 -80l12 -149l-12 -91l12 -35l-23 -91v-252q0 -26 -137 -46q0 -34 -23 -34h-57l-138 -12q-10 57 -103 149l23 160l-23 23v92l35 114h11l-11 46 q0 141 206 355q0 18 114 80v80l57 11l12 -34h11q6 46 34 46zM1079 1441l46 -46v-126l34 -137q-23 -218 -69 -218h-45q-32 0 -80 218l-206 183q-62 0 -81 46v23l23 22h115q41 0 91 -45h46q79 80 126 80zM850 1269v-11h46v11h-46zM129 811v-11q9 -103 57 -103q46 0 58 69 q57 14 57 34v11h-172zM1067 777q61 0 126 -91l-45 -126l11 -46l-23 -103v-114l12 -46q0 -126 -126 -126q-99 -88 -344 -137q-52 22 -57 45v12l126 91l-11 321l11 80q-49 114 -126 114v23q0 27 218 46l23 23l183 -23q0 57 22 57zM484 342l34 -137l-11 -46l68 -68 q0 -80 -80 -80q-343 80 -343 228l46 35h23v-12l80 12h80q54 68 103 68zM183 -150l12 -12l80 12q114 -3 114 -23l218 23h91l-114 -92h-172l12 -11v-35l-58 -11l-205 23l-172 -23l-23 34q0 80 69 80l11 12v11l80 -11h23zM996 -150h91l23 -23v-57h80q59 0 115 68h11l23 -23v-68 q0 -20 -149 -46l-331 23l-46 -12l-149 12h-11l-23 23q23 23 148 34q0 27 92 46l69 -12h11z" />
<glyph unicode="h" horiz-adv-x="1501" d="M163 1728h103l23 -23l-115 -12q0 -42 138 -80q0 23 173 46q0 34 322 57l12 12h11l23 -35l230 12h58v23h12q126 0 126 -35v-57q107 0 150 69l92 11l11 -11v-92l-23 -23h-391l-104 11l-69 -11l-11 11l-58 -11h-57l-104 11l-57 -23l-139 23l-46 -11h-46l-57 11l-69 -11h-92 l-184 11l-46 -11l-12 11v23q51 81 127 81l69 -12v35zM876 1451l127 -34l103 11l70 -23l184 35l23 -35q0 -71 -104 -115l-11 -92l23 -149l-23 -185l23 -92l-23 -126l23 -104l-23 -34l11 -46l-11 -115l23 -47l-12 -46l12 -80l-12 -81h46l12 12h11l12 -12v-23l-35 -34l-115 23 l-81 -12l-115 23q-6 -46 -264 -57l-23 34q13 92 46 92l11 -34h23l12 34l-12 115l23 162l58 -12q23 0 23 92l69 12v11q-161 0 -161 46l23 104v11h-127q-80 0 -80 81v11q0 35 149 46l12 -11q0 69 23 69q34 -42 34 -92q27 0 35 80q-23 53 -46 58l-12 -11l-11 11l11 12v115 l-34 115l57 80q-19 62 -161 161q0 27 184 46zM220 1440h415l34 -35v-34l-115 -115l23 -276v-69q-35 -43 -35 -81v-12q0 -38 35 -80l-23 -127l35 -149q-35 -12 -35 -69v-23l23 -127v-23l-23 -35v-23q46 0 127 -115q-5 -23 -58 -46l-276 58l-299 -46q-46 48 -46 92q34 0 34 46 l46 23v138l-23 81q38 0 81 402l-12 35q61 0 92 81l-11 46h-23q-23 0 -46 -70h-35q-23 0 -23 35l12 104q-23 0 -23 34l46 138l-46 127v11h23v23l-23 35l23 23l34 -12zM243 1313q46 -62 46 -103h12q67 80 138 80q0 46 103 46q0 23 35 23l12 12v11l-208 12q-73 0 -138 -81z M232 1095l-12 -12v-34l12 -81h23l11 81zM911 1037l-23 -34v-23l23 -69l46 57q0 58 -46 69zM197 393v-23l46 -35q69 12 69 58q89 16 127 69q103 13 103 34v58h-34l-150 -46q0 -46 -80 -46q0 -60 -81 -69zM151 300v-11l23 -23l35 34l-12 35h-11zM309 -141q12 -34 69 -34 l150 23l11 -12h12l35 12l11 -46l35 23h11l35 -23h46q0 34 23 34l46 -23l230 12q0 23 34 23l12 -12h11l46 12h12l23 -23l-11 -69h34q21 69 207 69h69l35 23h11l23 -23v-81q0 -34 -333 -46l-70 23l-115 -11l-161 11l-11 -11v-12l-104 23l-92 -11l-57 11l-58 -11l-69 11 l-12 -11h-11l-69 11h-92v12l11 11v12l-23 23l23 34l-23 23v12zM45 -152h23q56 -58 149 -58l12 -11v-69l-81 -12l-103 35l-46 -12l-23 23q0 23 46 23v35l-12 11v12z" />
<glyph unicode="i" horiz-adv-x="772" d="M337 1734l161 -46l162 23l58 -12l70 23l11 -11v-93q0 -23 -35 -23l-115 12l-12 -12h-11l-70 12l-92 -12l-35 12l-185 -12h-69l-47 12l-161 -23l-12 11v81q0 28 116 35l208 -12q0 20 58 35zM368 1447h81l35 -23l11 12h12l12 -12h11l81 23q69 -60 69 -104q-115 0 -115 -138 l-23 -81v-93q0 -88 46 -104l-12 -58v-115l12 -104l-46 -128l58 -242l-12 -104q81 -58 81 -93q-38 -92 -81 -92l-116 57l-115 -23l-104 23l-116 -34q-98 0 -139 69v12l23 23h58q46 155 46 347h47l-12 57q0 35 81 35v12q-139 0 -139 81v127l-11 127l23 116l-12 46l12 104v69 l-104 104v12q0 35 335 69zM299 511q0 -35 -35 -35v-11q111 0 162 -24l69 12h24v58h-220zM285 -155q23 0 23 -34h35l46 34l115 -11l81 11l104 -11l105 11l11 -11v-58q0 -23 -127 -35l11 -11v-12l-11 -11h-35l-69 11l-35 -23l-81 12h-81l-58 -12l-289 35l-57 -23l-12 11v23 q0 83 162 104h162z" />
<glyph unicode="j" horiz-adv-x="1119" d="M75 1728l112 -33l223 33l66 -22h12l345 22v-45h45l-12 12v22l56 11q56 -22 167 -22l23 22h11l22 -22v-89l-22 -23h-78l-179 11l-11 -11h-11l-44 11l-45 -11l-11 11l-56 -11h-200l-90 23l-89 -23h-22l-67 11l-56 -11l-33 11l-67 -11h-44q-23 0 -34 101zM903 1442 q123 -19 123 -101q-90 -61 -90 -111h-11l11 -89l-22 -335l11 -78l11 -423q-83 -147 -345 -234q-40 -34 -112 -34q0 19 -66 34l-12 56v22q101 71 101 212l11 11v11l-11 33l11 11v12l-11 44l11 11h167l56 11v67q0 25 -101 34l-144 -11l-23 66l45 491l-112 212v11q0 26 179 44 l11 11l167 -44q75 0 145 56zM301 572q100 -46 100 -145v-33q-54 -54 -66 -134q-23 0 -45 -55v-12q67 -7 67 -33v-45q0 -33 -112 -44q-228 206 -245 256q0 103 167 223zM654 -151l56 -11l78 11l133 -22h56l89 22l11 -11h12l33 11l11 -11v-101q0 -22 -33 -22l-45 11l-100 -11 h-11l-45 11l-45 -11l-100 11l-44 -11l-90 11l-33 -22l-134 11h-89l-100 -11l-34 22l-55 -11h-78l-134 11v23q94 89 189 89l246 -23l66 12l56 -12q114 14 134 34z" />
<glyph unicode="k" horiz-adv-x="1437" d="M1351 1731l11 -45h11q0 34 23 34h45l22 -23v-101h-79l-78 11l-23 -23h-11l-34 12l-68 -12l-237 12l-146 -12l-12 12l-56 -12h-147l-124 -11l-124 23l-102 -12l-90 12l-158 -23l-11 11v91l79 45q58 -34 113 -34h67q84 0 91 34q135 -12 135 -34l169 11h57l101 -11l68 22 l34 -22h34l90 22h11l45 -22zM217 1421l102 -56l180 11h68l34 22h22l23 -22v-45l-79 -91v-609l11 -214q-22 -51 -22 -147v-22q0 -89 101 -170l11 -33l-112 -34l-68 11l-169 -11l-79 11l-45 -11l-34 11l-57 -23l-124 57v11q60 79 102 79l22 -22v11l-11 56q9 91 57 91 q-9 112 -34 112l11 34l-34 215l11 11v11l-11 34l11 147l-22 56l22 102l-22 259q-69 25 -79 68zM1300 1398l34 -56q0 -37 -169 -90l-102 -91q0 -24 -101 -146v-11q45 -78 45 -136q0 -28 -113 -90q0 -23 -113 -34q0 -45 -67 -45l-46 -23q0 -45 -22 -45l-23 23v34 q64 135 249 293l45 203v23l-113 112v23q0 34 496 56zM1029 789l23 -22v-79q0 -42 79 -158l135 -361q23 0 23 -34q0 -45 -56 -45l-12 -45h45q61 45 102 45l11 -12v-11q0 -33 -180 -68l-192 23h-11l-237 -11q-52 22 -57 45v22q0 23 45 23v90q0 136 -112 373v11l33 11l12 -11 h11q21 0 56 68q67 0 102 56q77 0 180 90zM206 507v-79h11v79h-11zM217 -158h79l226 -11v-11q-86 -113 -147 -113l-79 11l-68 -11l-11 11h-11l-11 -11h-12l-158 11h-33l-23 23v45q0 23 113 45h45l34 -22h34q0 33 22 33zM1063 -158l45 -45l350 34l11 -11v-90q0 -23 -33 -23 l-12 11l-56 -11h-45l-136 11l-101 -11l-124 11l-215 -11l-90 11l-101 -11l-12 11v12q0 22 136 56l34 34h101l45 11l34 -11zM330 -180v-23h56v12z" />
<glyph unicode="l" horiz-adv-x="1180" d="M1069 1736q92 0 92 -57h11q0 46 23 46l12 -12v-91q0 -35 -46 -35l-57 12l-103 -12l-92 12l-34 -12l-80 12l-57 -12l-80 12q-46 -3 -46 -23l-138 11h-91l-114 -11l-12 11v12l-80 -12h-80q-126 0 -126 35v34q0 42 195 57l11 12q18 -21 252 -35l68 12l80 -12q0 35 23 35h46 q23 0 23 -58l80 -11q0 23 34 23q0 23 58 23v11l80 -11h80zM57 1399h23v-11l114 11h81q144 -22 205 -57q100 23 138 57q60 0 68 -114l-22 -23h-58q-34 -85 -34 -183l34 -275v-11l-34 -34l11 -35l-11 -34l23 -240q-44 -206 -80 -206q-47 0 -115 -138v-34h58q0 50 45 80l35 57 h23l34 -148l-149 -57l-91 34l-103 -23l-172 23l-46 -12l-23 35q0 23 103 45l12 12v126l-23 103l46 160v23l-23 69l11 251l-23 126l12 12h11l-11 80v23h11q23 0 23 -35h69v12q-57 0 -57 23v22q0 23 34 23l11 12v11q-114 0 -114 115q-103 30 -103 45v12zM297 1102v-23h35v23 h-35zM160 690l-11 -34q17 -46 34 -46l34 11q0 69 -57 69zM961 484q63 0 103 -69v-91q0 -23 -34 -23l-12 -34l46 -229q-8 -57 -34 -57h-12l-80 57l-252 -23l-34 46v11l126 57q11 43 114 126l23 57h-34q54 167 80 172zM191 -157h81l45 -34h23l34 23h115q84 0 91 -34l172 22 l160 -11l252 34h23l23 -23v-80q0 -34 -149 -34h-240l-183 11l-35 -11l-91 11l-46 -11l-69 11l-91 -11l-57 11l-161 -11l-114 11v69l80 46l80 -23zM363 -248v-12h69v12h-69z" />
<glyph unicode="m" horiz-adv-x="1561" d="M-4 1728l11 -11h12l11 11h11l34 -11l12 11h11l57 -23l114 12l262 -23l159 34h45l23 -23l-11 -45q43 -34 102 -34h12q0 56 45 56q0 35 23 35h45l35 -23q121 34 204 34h160v-34l-137 -12h-34v-11q7 -27 80 -57q58 0 307 91v-79q-12 -35 -68 -35h-57l-57 12l-68 -12h-12 l-159 12l-91 -12l-125 12l-205 -12l-114 12l-80 -12l-68 12l-91 -12l-159 12l-12 -12h-11l-11 12h-12l-34 -12l-125 12h-46l12 79l-23 23zM201 1434q182 -46 182 -80v-11h45v11q-34 0 -34 23l125 34q15 0 68 -159l-22 -23v-45l34 22q0 -34 45 -34l-11 -91q57 -92 57 -159 v-57h34q0 68 80 159l45 -170q-12 -104 -102 -239q0 -50 -57 -171l11 -57v-80l-45 -113l11 -46q-42 -23 -91 -137h-11q-52 0 -125 285q-20 4 -80 159l11 80q-95 150 -136 375q-28 0 -46 148q-16 0 -79 205q-60 0 -103 68v23q19 46 80 46l34 -23h11q0 57 69 57zM1156 1400 q87 -29 103 -80l-23 -34q46 -62 46 -102q148 138 148 182h22l12 -46q-103 -73 -114 -102v-46l11 -102l-11 -103l11 -148l-45 -102l68 -125q-34 -31 -45 -137q-92 -6 -92 -68l-56 -11v-23l45 -34q57 0 80 68l34 11l34 -102l-11 -68v-46l79 -114q-27 -68 -68 -68l-148 23 l-11 -12h-12l-91 23l-136 -45q-205 50 -205 68v11q0 19 136 91l-11 160l11 364q111 12 148 68q88 0 148 148l-11 34h-23q-130 -148 -193 -148q0 -26 -57 -34l-23 91v273l-23 46q0 148 34 148h126q0 91 113 91zM1350 1400q80 -12 80 -34h-114v22zM804 1093h34v-12l-23 -23 l-11 12v23zM1225 1070l-12 -12v-34l12 -79h11l23 22v34q0 60 -34 69zM166 842q38 -49 57 -171v-79q34 -42 34 -159l-22 -171h11l91 -114q41 0 91 -68v-12q0 -24 -125 -68h-91l-34 23h-80l-79 -12l-12 12v57l137 114l-12 56v35q0 80 23 125l-23 296l12 11v11l-12 69v11z M1145 285v-12l23 -23l34 35l-11 34h-12zM30 -158l114 -11l79 11v-34q-47 0 -91 -68h-136l-23 22v34zM553 -158q80 0 80 -68q0 -23 46 -23q53 0 238 91l35 -11l182 11h22v-34h-56v-12q53 0 79 -22l34 11l12 -11v-69h-12l-91 12l-11 -12h-11l-35 12l-136 -12l-103 12l-56 -23 l-137 23l-91 -12l-57 12l-102 -12h-80q-148 0 -148 35q171 14 171 68h159zM1270 -158l125 -34l91 34h69l34 -34v-80l-12 -11v-12h-22v12l-114 -12h-148l-46 57l12 46l-23 23l11 11h23z" />
<glyph unicode="n" horiz-adv-x="1410" d="M46 1733l81 -23l12 12h11q69 -17 69 -35l231 23l70 -11l92 11l104 -11l104 11l46 -11l58 23q69 -35 138 -35l69 23l70 -11l23 34q127 0 127 -46l-12 -34h12l69 11l11 -11v-46l-23 -24l-69 24l-138 -24l-58 24l-116 -35l-277 35l-196 -24h-23l-138 24l-116 -24l-58 12 l-57 -12l-104 12l-69 -12l-12 12v81q0 23 46 23q0 34 23 34zM93 1445h34l139 -46l23 34q381 0 381 -127q0 -40 115 -138l127 -346q219 -237 219 -347l-11 -11l11 -58v-81q35 -46 35 -115q-17 -173 -81 -173h-23q0 -35 -23 -35q-202 41 -254 116v23h23v23h-23v-23l-46 57 l11 12v11q-23 0 -46 70q-52 46 -81 150q-63 29 -161 288q58 0 58 46q115 6 115 93v34l-35 12q-34 0 -34 -58l-162 -23q-115 150 -173 335q-162 185 -231 196v35q93 6 93 46zM1039 1422q46 -23 127 -23l23 23h23q87 -12 92 -46v-35q-150 -104 -150 -162v-103l12 -70 q-40 -311 -69 -311q-58 46 -58 104l23 115l-35 150l24 81l-70 81q0 127 -46 127l-11 11v35h23zM196 1064q93 -144 93 -254l-12 -150l35 -150l-35 -219q35 -58 35 -127h34q64 0 81 -46v-35q0 -58 -34 -69l-220 11l-34 -11q-116 11 -116 46q0 23 46 23q29 58 70 69l-12 12v11 q23 179 81 243l11 46l-69 265v127h58v12q-46 0 -46 23v35l23 34v12l-23 34v23zM658 972v-46h12v46h-12zM739 452v-11l58 -46l34 23h243v23l-12 11v12l-115 -12h-12l-23 23q0 29 46 35v12l-81 11q-34 0 -92 -58q-46 0 -46 -23zM-11 -133h11l35 -35l11 12l173 -24q0 35 127 47 l12 -35h12l34 23h46q116 0 116 -23l265 23l12 -11v-12q0 -35 -58 -35v-46h81l127 81h81l161 23l81 -35l104 12l11 -12v-80l-11 -12v-11l-81 11l-138 -23q-197 23 -566 23h-81l-46 -11l-11 11h-12l-12 -11h-11l-69 23q-47 -23 -127 -23l-70 11l-69 -11l-11 11h-12l-46 -11 h-23q-81 0 -81 127z" />
<glyph unicode="o" horiz-adv-x="1386" d="M75 1727h47q70 0 70 -46l92 23l12 -12l244 35l69 -35l128 35l197 -23l47 11l174 -11l46 11l70 -23h70l46 35l35 -35v-69q0 -29 -58 -35l-70 11l-336 -23l-163 23h-46l-105 -23l-185 23l-12 -11h-12l-35 11l-46 -11l-46 11l-58 -11l-58 11l-70 -11l-81 11l-58 -11l-12 11 v35l12 12q0 17 69 23q0 58 23 58zM563 1448l12 -11v-12q0 -64 -244 -255q0 -12 -151 -23q-93 11 -93 34q70 93 313 209q111 58 163 58zM842 1425q63 0 139 -93q116 0 151 -151q64 0 139 -371q0 -151 -81 -151q-58 0 -58 -58l-116 -12h-140v-23q70 0 70 -23q0 -46 -70 -46 v-12l117 -12q133 0 197 70h23q0 35 23 35h12v-81q0 -29 -58 -117q0 -179 -348 -336q-64 0 -186 -47h-12v58q116 93 116 128l35 128v81l-23 128v23h35v12q-58 5 -58 34v35q29 157 81 174l35 -11l69 11l-11 12v12q0 69 81 69v12h-186v-23l12 -12v-12l-12 -11h-11 q-47 75 -47 116l24 139q-18 23 -35 198l-70 69v23zM482 1205h23v-174q-23 -29 -35 -117l23 -139l-23 -69l23 -24l-23 -418l139 -185q-17 -82 -46 -82q-441 128 -441 337l-12 12v11l35 35v12q-93 0 -128 127l-34 35v23q34 47 34 105l-11 104q23 35 58 233q191 23 244 69 q127 0 127 58q47 0 47 47zM934 -153q12 -70 59 -70q139 40 139 58l139 -12l47 12l11 -12h12l46 12l23 -35v-81l-11 -12v-11l-70 11l-93 -11l-69 23h-58l-70 -23l-46 11l-47 -11l-244 23l-116 -23l-58 11h-244q-58 0 -58 -23l-162 23h-70l-23 23v58l93 47h46l93 -12l93 12 l12 -12v-11l-35 -35q11 -47 58 -47q40 93 255 93l12 12h11l24 -23h81l35 23l58 -12z" />
<glyph unicode="p" horiz-adv-x="1343" d="M312 1725l11 -12l-11 -57v-23h23l11 46l12 -12h11l185 46l58 -11l81 11l23 -23l265 12l58 23l69 -23l127 23l92 -23l35 11l11 -11v-92l-23 -23h-80v23h57v34h-92l-23 -23l23 -34h-23l-219 11l-243 -23l-92 12l-127 -12l-35 23l-127 -23l-138 23l-242 -23l-23 35v80l23 23 l23 -23l11 12h12l57 -12q127 35 220 35zM889 1448q63 0 104 -69l-12 -116l12 -34h11q17 0 35 81l46 23q138 -75 138 -277l-11 -12v-11q35 -93 35 -197q-283 -300 -554 -300l-24 23l12 104v12q69 0 104 242q138 0 138 58h197v58q-81 0 -81 57h-104q0 -57 -139 -57h-23l-23 23 q18 46 70 46q0 115 -174 265v12q0 17 70 34l57 -11zM543 1436h11l12 -11h11l-11 -58q11 -288 34 -288q0 -173 -104 -254l-23 -46v-23l35 -35l58 35v-23l-12 -47l23 -69v-58l-23 -92l46 -115v-127l-11 -81q92 -12 92 -92l-185 -46l-196 34h-57q-41 0 -81 -34q-162 17 -162 57 v23h35q115 0 115 93v23l-23 127v23l116 11v23q-76 0 -162 139l23 173l-12 11v12l24 58l-12 69l12 58l-12 92v12q0 28 139 57q0 35 276 58l-11 11v12l23 69h-196q-46 0 -116 -46l-34 -11q-58 0 -81 92l-115 127l23 23q69 0 69 -46h115q0 57 185 57l127 -11zM889 1206v-23h46 l-12 34zM450 398v-12q12 -34 69 -34h35v46q-46 34 -46 69h-23q-35 -11 -35 -69zM1267 -148h81l34 -35v-34q-28 -81 -92 -81l-485 23l-80 -11l-150 23l-162 -23l-11 11h-12l-46 -11l-35 11l-69 -23l-162 12h-80l-35 34q0 81 162 81l161 -12l196 23l23 -23v-57h23v11l-11 35 l35 11l11 -11h12l46 23l46 -12l219 12h12l57 -12l197 23l23 -23h69q0 35 23 35z" />
<glyph unicode="q" horiz-adv-x="1383" d="M-13 1725l117 -12l71 12l106 -24l47 12l12 -35h24l82 23l12 -11h12l12 11l70 -11q95 0 165 35l106 -35l36 23h71l70 -12l59 12l36 -12l23 24h83q23 0 23 -35h12q0 35 24 35l94 -47v12l23 23l24 -23v-83l-24 -23l-58 11l-307 -23l-165 23l-71 -11h-35l-106 11l-71 -23 l-177 12h-176l-236 11v12l23 35q-35 0 -35 24v35zM433 1439h128l24 -23q-128 -140 -128 -326l23 -163q-151 -163 -268 -163q-52 0 -81 -46l-105 -12l-12 12v46q0 169 105 279l35 94v34l-12 59l222 139zM782 1439q175 -41 175 -93q70 0 151 -128q53 -23 58 -47v-23 q-116 0 -116 -70q0 -29 -58 -35v-11h151q0 35 23 35q94 -76 94 -268v-46q0 -373 -245 -547v-24q0 -29 140 -58q81 23 81 70h12l23 -23v-12q0 -145 -302 -174l-82 -12q0 41 -81 81l-117 -35l-11 12v93q0 23 58 23v47q0 17 -175 81v35q0 41 163 59l24 -24h23l-23 221l34 245 l-34 221v23q0 93 46 93v35l-23 35q0 23 46 23v24q-69 0 -139 81l-12 70v11zM992 1137v-12h46v12h-46zM457 846l23 -24v-104l35 -93l-35 -222l23 -81l-11 -12l11 -58v-23l-23 -35l-12 12h-198l-46 -12q-221 128 -221 454l11 11l47 -11q105 0 209 70q105 0 105 58q70 0 70 70 h12zM1085 636v-46q35 0 35 -47h23q0 47 47 47l35 93l-24 23h-11q-53 -70 -105 -70zM294 159l11 -12h117l139 12q47 -58 47 -93h-12l-58 12l-151 -24l-105 93zM123 -149q83 0 130 -35q35 23 142 35l35 -35l23 23l59 -23l154 23l70 -23h59l95 23l11 -11l59 11h83l12 -11l11 11 h36l35 -23l118 12l71 -12l70 23l24 -23v-94l-12 -12v-12l-59 12h-59l-141 -12l-118 12l-82 -12l-130 24l-24 -24l-259 24l-271 -12h-259l-24 23v24q0 35 141 35l-23 36z" />
<glyph unicode="r" horiz-adv-x="1452" d="M350 1727l23 -23h34l35 12l57 -12h58l92 23l46 -34l103 11h23v-11l81 11h184l69 23q143 -11 161 -34l46 34q126 -11 126 -34v-104h-11l-92 12l-115 -23l-69 11h-12l-80 -11l-357 23l-103 -12l-115 12l-46 -12l-115 12l-92 -12l-35 12l-69 -23l-103 11h-58l-34 35v34 q0 40 230 58l57 -12zM459 1451h69l34 -35v-34q-17 -35 -161 -81q0 -34 -126 -34h-161l-58 11v35h23v11q-80 0 -80 81l34 11l207 -23q219 23 219 58zM700 1428l35 -35l-12 -80l23 -81h23l12 58l-35 80l12 12h11l46 -35q64 58 127 58q253 -127 253 -276l-12 -219l-138 -138 h-46l-34 12l-58 -12h-149l-35 23l35 184l-23 150l11 46q-11 92 -103 161v23zM562 1313l12 -12v-172l-35 -173q46 -86 46 -172q-28 -224 -57 -299l11 -69l-11 -35q23 0 69 -253q34 0 57 -46v-23l-34 -34h-35l-149 -12l-115 23l-276 -34q-58 17 -58 34v12q0 69 104 103 q52 138 80 138v35l-46 11l12 58v11q-46 0 -46 92l11 58l-11 149l11 81l-11 11v12l23 161v172l-12 81h334q46 0 126 92zM700 761h23q29 -35 58 -35v-11q0 -23 -35 -23l-11 -12v-11h138l80 69l12 -12v-11l-35 -35v-11q224 0 276 -150l12 -57l-12 -35l12 -34l-23 -92v-58 l34 -34h23q40 0 81 34h23l11 -46q-52 -115 -230 -207l-34 12l-58 -12q-276 64 -276 242l12 46q-17 69 -35 69l12 115q0 161 -92 161l-12 57v12zM873 209v-69h11q0 103 161 103q0 46 81 46q34 0 34 23v35h-138q-63 0 -69 -58q-51 0 -80 -80zM981 -152h46q23 0 23 -34h46 l-12 11v12l12 11l322 -34l23 23h11l23 -23v-81l-23 -23h-34l-46 12l-92 -23l-483 23l-69 -12l-161 12l-150 -12l-34 12l-12 -12h-11l-35 12l-103 -23q-104 6 -104 23l-57 -12h-69l-23 23v46q69 58 218 58v-12q0 -46 58 -46l241 46l69 -11l81 11l46 -11l264 23l12 -12z" />
<glyph unicode="s" horiz-adv-x="1107" d="M159 1725l103 -11l58 11l11 -34l12 11h11l34 -11l230 23l91 -23q126 11 149 34l69 -34q155 11 172 34h11l23 -23v-92l-23 -22h-160l-126 -12l-103 23l-69 -11l-12 11l-57 -11h-91l-46 11l-35 -11l-34 11l-34 -11l-103 11l-253 -11l-11 11v57q0 17 183 69zM423 1461 l34 -34l35 12l11 -12v-23q0 -63 -126 -137l-23 -92q80 -183 264 -183l80 -46v-23q-17 -69 -80 -69l-104 -11l-45 11v-23q68 0 68 -68l-11 -12h103q0 46 80 46l69 69q80 0 183 -115v-57q35 0 35 -23l-12 -34q35 -58 35 -115v-11q-23 -218 -115 -298q-92 -172 -218 -172 q-97 -34 -183 -34l-23 57q0 46 183 103v126q0 183 -229 206l-309 172l-126 275q29 0 34 80l-23 80l115 115h-46v11q34 63 241 172h46q0 57 57 57zM915 1450h35l23 -92v-57l-23 -114l34 -149q-17 -52 -69 -81h-22q-23 0 -35 138q-80 143 -298 252v23q0 34 115 57 q92 -6 149 -57h23q68 46 68 80zM91 556q68 -57 68 -171q23 0 92 -172q57 0 183 -126v-35q-11 -34 -68 -34h-23l-69 46l-12 -12h-11l-57 35h-12q-51 0 -103 -69h-11q-29 0 -69 218l11 126v91q0 58 69 92zM927 534q0 -46 -80 -58v-23l68 -46q69 46 69 92l-11 35h-46zM113 224 q0 -34 -80 -57v-12l35 -34h80v80l11 12v11h-46zM10 -144l12 -12h11l35 12l172 -34q91 5 91 34l35 -12l91 12l241 -23l252 23l11 -12v-11q0 -52 -68 -69v-11l11 -12v-11l-57 -23l-138 23l-46 -23l-297 23l-115 -12l-11 12l-58 -12h-183l-23 23v92q0 23 34 23zM1099 -167h34 v-92q0 -28 -149 -34v46l12 11q0 23 80 23q0 46 23 46z" />
<glyph unicode="t" horiz-adv-x="1358" d="M71 1725h12l113 -11l-11 -57h11l285 11q0 46 23 46h91l34 -23h12l79 11l23 -23l69 23h113l69 12l57 -12l91 23h91q57 0 103 -34l34 23l22 -23v-80l-22 -23l-160 12l-262 -23l-114 23l-125 -23l-114 23l-114 -12l-114 23l-136 -23l-148 12h-103v68q0 23 57 23zM45 1454 l160 -11l45 11q92 -46 92 -125q-114 -46 -114 -171q-29 0 -57 -205l-46 -34h-34q-40 0 -57 125v91q0 23 34 23v45q-34 0 -34 23t46 23v34q-80 6 -80 148zM809 1431q56 -17 56 -57q0 -171 -68 -171q-57 -57 -182 -57q-171 0 -171 46l-11 137q51 0 273 91zM991 1431v-23 l-34 -11l-12 11v12l12 11h34zM1184 1431q46 -85 46 -171l-23 -102l12 -103q-35 -136 -57 -136h-35q-17 0 -45 79l11 103q0 85 -91 194l-11 34l136 91zM831 1146h34q0 -56 -22 -56l22 -160l-22 -80l11 -34l-23 -45l12 -46l-12 -182l34 -217l-22 -148h11l103 -68v-23l-69 -68 l-57 11l-125 -23l-80 23l-102 -23l-91 46l-91 -11l-35 11v23q91 68 91 216v103q35 68 69 68q0 17 -57 34v23l23 46q-12 91 -57 148l34 45l-23 274q46 11 91 57h23v-12l-11 -11v-12h170q35 46 149 46zM649 -128q34 -23 91 -23q0 -40 -34 -80l11 -34l-11 -11h-68l-46 11 l-11 -11h-12l-11 11h-11l-80 -11l-46 11l-102 -11h-34l-103 11l-68 -23q-137 12 -137 35v45q0 23 103 46l91 -12l45 12l80 -12l91 34l68 -34q137 6 194 46zM1298 -140l91 -34v-102h-22q-80 0 -126 -23l-68 11l-68 -11l-80 11l-80 -11q0 23 -34 23l-11 -12l-57 12l-80 -12 l-11 12v11q0 46 57 46l34 11q17 46 34 46h102l126 -23h34q28 23 159 45z" />
<glyph unicode="u" horiz-adv-x="1316" d="M-31 1728q80 0 80 -23l57 12h92l34 -23q120 0 160 34h92l23 -23l11 12h58q23 0 23 -35l194 35l69 -23l103 23l34 -23h23l80 23l69 -12l23 23l69 -11l34 11l46 -34v-80l-23 -23h-149l-263 11l-218 -11l-46 11l-57 -11l-23 23l-297 -35l-69 12h-92l-46 -12l-68 23l-35 -11 l-11 11v103zM553 1455q0 -92 -80 -115q-23 0 -58 -46h-114l-172 -11v11q0 23 35 23v35h-69q-86 0 -92 34q17 46 35 46h34l286 -12zM1091 1443q57 -46 114 -46l12 -11v-11q-149 -184 -149 -332l-23 -35l34 -137l-34 -218q34 -57 34 -114q0 -281 -171 -492l-35 -12 q-149 6 -149 34v35l184 103l68 206v11l-34 229q6 241 46 241l-23 206q57 0 91 57v46h-11l-34 -23h-35q-28 17 -91 126q-63 0 -80 46q0 23 286 91zM599 1375h11v-23l-46 -35v23zM530 1306h23v-12q-35 -68 -57 -240l22 -126l-11 -103l11 -69l-22 -80l11 -149l-160 -91 q-92 0 -126 -57q-80 -6 -80 -23q5 -29 57 -46v-34h11q0 45 80 45l12 12l23 46q109 0 172 68h22v-80q0 -217 126 -240v-69q0 -17 -194 -46h-12q-126 92 -252 115q-103 74 -103 263l12 229q-29 0 -35 80l23 321l-34 148q0 81 92 81l263 -12q74 0 126 69zM599 -143h45l35 -23 l68 11q29 -23 184 -34l114 34l34 -11l12 11h11l69 -23h103l34 23h12l23 -23v-80q0 -23 -35 -23l-137 -11l-229 11h-11l-252 -11l-149 11l-46 -11l-57 23l-57 -12h-92l-126 -11l-11 11h-12l-34 -11l-12 11l-57 -11h-11q-58 0 -69 34v69l149 23l103 -12h103l23 23l103 -23 q57 35 172 35z" />
<glyph unicode="v" horiz-adv-x="1316" d="M221 1725l136 -23h57v-34q-108 0 -136 -68l-228 -34q-79 28 -79 45v23q6 17 250 91zM754 1725l57 -23l114 12q91 -6 91 -34l79 11h159l34 23h46v-91q-29 -46 -137 -46l-340 12l-12 11v11l34 46h-79v-11l23 -35q-57 -34 -125 -34l-12 12l-136 -23l-170 23v22h79 q125 0 159 80q0 17 136 34zM1072 1452l34 -11l46 11q51 -22 57 -45v-23q-17 -102 -103 -102q-102 -96 -102 -181q0 -57 -68 -228q0 -119 -57 -329h-34v12l23 68q-45 62 -45 125v158q79 46 79 296v22l34 12v22q-62 0 -136 103v11l45 57h46zM368 1430l273 -12l11 -11v-57 l-68 -79v-23l23 -23l-12 -79q40 -267 125 -363q40 -97 69 -352l22 -34q-28 -250 -102 -341q-28 -28 -170 -45l-114 34v79q0 68 -45 125v23h91v11q-52 0 -91 34l34 57q-80 0 -80 57l-125 352q74 56 137 56v23h-114q-113 193 -113 375l-125 102v11q0 23 56 23l12 34l79 -11z M857 1350v-22l34 11v11h-34zM323 771v-11h148l68 45h-114q-51 -34 -102 -34zM561 692h34v22h-11zM141 -150l91 -12l68 12l125 -12l91 12l11 -12v-11q-62 -46 -102 -46v-34h68q46 0 216 91l102 -11l114 11l57 -22l249 34q103 -17 103 -46v-91h-80l-45 12l-46 -23l-125 11 l-91 -11l-227 23l-283 -12h-23l-23 23q-136 -23 -341 -23h-68v34h34v23q0 23 -34 23v23zM62 -196v-34h79v23z" />
<glyph unicode="w" horiz-adv-x="1812" d="M739 1728l92 -23h162l23 -23q-162 -29 -162 -46q0 -29 -173 -58v-11l-81 11l-69 -11l-46 11l-162 -11l-92 11l-47 -11l-46 11l-92 -11q-81 17 -81 46v81l23 23h23l35 -35l11 12l162 -23l243 34h115q23 0 23 -34q41 0 139 57zM1801 1694h35v-93q0 -23 -35 -23l-242 -11 l-150 11l-35 -11l-104 11h-23l-277 -11l-47 11v23l255 12h381q46 0 242 81zM1027 1440q41 0 139 -277l46 -47l-23 -127q0 -52 81 -231l23 -92l-12 -12v-11l35 -150l-11 -69l11 -197q0 -92 -185 -242q-184 34 -184 184q-41 64 -58 220l11 46q-127 202 -127 289q197 29 197 46 t173 58q0 34 46 34v47h-81q-23 -58 -185 -58q0 -58 -103 -58h-35l-23 23v220l69 288q92 116 196 116zM1663 1428l34 -34v-12q-17 -40 -138 -104q-139 -358 -139 -496l-58 -70l-69 150l12 12h69v23l11 81l-46 11l23 104l-11 35q69 0 69 69q0 104 -162 150v12q0 17 93 46 l69 -11l46 11l70 -23q63 0 127 46zM369 1417q98 0 139 -35h34q58 0 58 35h23q23 0 46 -81q-52 0 -80 -127q57 -179 138 -612l35 -70q-46 -254 -116 -450q0 -69 -34 -69q-202 0 -243 127v23l12 81q-93 109 -93 150l-11 69l11 93v11q35 0 35 35l58 81q-127 0 -127 34l-93 173 v12l35 46v35q-81 0 -81 150q-29 23 -35 150v35q-80 23 -80 46v11l23 24l11 -12l58 12h35l57 -12q0 35 185 35zM508 770v-23q92 0 92 -58h58l11 58l-11 46h-127zM1801 -142l35 -35v-58q-12 -34 -81 -57l-127 11l-127 -11l-12 11h-11l-104 -11h-12l-46 11l-35 -11l-150 11 l-11 -11h-12l-46 11h-46l-23 -23l-139 12h-92l-104 -12l-35 23l-81 -11h-46v34h-81l-69 -46l-219 23l-162 -11v92l23 23h162l69 23l46 -11l93 11q52 -58 138 -69l35 11v12q-104 0 -104 23l46 23l162 -11l34 11q122 -11 139 -35q104 35 231 35h23q35 0 35 -46l11 11h12 l369 24l58 -12l231 12z" />
<glyph unicode="x" horiz-adv-x="1364" d="M557 1728l35 -35h92l35 23l92 -23l127 23l35 -11l69 11l23 -23l-57 -23v-46h69q0 52 300 81l12 -12v-92l-23 -23l-81 11l-81 -11l-69 23h-58l-58 -12l-23 23q-69 -5 -69 -34l-254 23l-81 -12l-12 12l-58 -12h-265q-58 0 -58 -23l-196 23h-12l-23 23v58l69 46 q122 -11 150 -34q104 11 128 34h69l69 -11zM407 1451l115 -58h24q40 0 80 35h12l23 -23v-35q-35 -46 -35 -104l104 -231q0 -93 81 -162l127 -300q58 -110 104 -116q70 -236 197 -335l-58 -92l-81 11h-35q-40 -34 -80 -34q-47 0 -47 23l12 46l-35 46h-127l23 -23l35 12 l11 -12v-34l-46 -47h-104q-86 0 -161 70q0 23 57 23v104q0 86 -115 196q-41 58 -104 266q-17 0 -81 127l23 23v12q-69 40 -127 219q-81 75 -81 127v104q-115 17 -115 104q69 17 69 35l81 -12h23zM915 1439l58 -23l81 12l69 -12l12 12h11q46 -18 46 -35v-12q0 -86 -138 -115 q-35 -23 -127 -196l-81 -70h-12l-46 46v12l23 46l-11 46l34 58v81l-57 69v23q0 18 138 58zM338 492h11q35 0 58 -104q-98 -104 -104 -196q139 -104 139 -127q-18 -47 -58 -70q-64 35 -127 35l-127 -12q-104 12 -104 47v11q219 121 219 220q81 23 81 69q-58 17 -58 35 q41 86 70 92zM361 -161l115 -35l116 23l58 -11h150l92 23l69 -23h12l139 23l208 -12l57 12l12 -12v-104l-23 -23l-12 12l-81 -12h-11q-41 0 -81 35h-12q0 -35 -23 -35h-69l-139 12l-104 -12l-127 12l-196 -12l-116 12l-80 -12l-70 12l-104 -12q-173 0 -173 35v46l23 23h231 q23 23 139 35zM1204 -208q6 -57 23 -57q127 0 127 57h-150z" />
<glyph unicode="y" horiz-adv-x="1374" d="M1035 1727q52 -23 58 -46l242 46l58 -35l-11 -46l11 -57l-11 -12h-12l-115 12l-47 -12l-103 12l-104 -12l-12 12h-11l-69 -24l-104 12l-127 -12l-185 24l-219 -24l-69 12l-58 -12q-173 6 -173 35v46q0 41 312 58q0 -29 57 -35l104 23l58 -11l80 23l70 -23h34v23h58v-12 l-12 -11v-12h70v12h-23v34l57 -11h116zM615 1439h11q23 0 35 -116l-46 -23q0 -144 196 -554q11 -184 57 -357l-34 -139v-11q0 -58 115 -127q-34 -104 -58 -104l-230 23l-116 -35q-69 0 -69 47h-104l-80 -12l-12 12v34q0 23 46 23l58 46l11 35l-23 138q0 116 81 116l-12 58 v11l24 35q-70 0 -70 80q-57 0 -92 104q-17 6 -138 381v12q40 0 57 57q93 0 93 46q5 58 57 58v12h-92q-52 -23 -127 -127h-23q-23 0 -104 161l-34 35l23 23l11 -12h12l11 12h12l92 -12q104 58 139 58l115 -23q190 6 208 35zM1191 1439h35q23 0 35 -70q-18 -52 -162 -127 l-161 -392q-35 0 -35 -46h-35v81l-23 46q104 225 104 300q0 40 -127 127v11q0 23 242 58l58 -12zM626 262q-23 -29 -23 -81q-46 0 -46 -46l-69 -58v-23h34q58 0 116 92q5 47 46 47q-12 51 -58 69zM9 -163l81 -23l208 23l34 -34l35 23l23 -23l150 23l150 -12l127 12l69 -12 l138 23l58 -23l104 12l138 -12l81 12v-92l-11 -12v-11l-162 11l-196 -11l-35 11l-427 -23l-115 12l-35 -12l-103 12h-162l-46 -12q-127 17 -127 58v57z" />
<glyph unicode="z" horiz-adv-x="1156" d="M313 1730h81q23 0 23 -46l58 34l34 -23l197 12h69l104 -12l92 23l115 -11l23 23h58l23 -23v-81l-23 -34l-115 11h-46l-47 -11l-11 11l-58 -11h-46l-127 11l-150 -11h-104l-46 -12l-115 23l-104 -11l-127 11l-92 -11l-12 11v46q0 35 115 58h197zM134 1441l300 -46v-12 l-92 -92h-254q-23 0 -23 58q-58 0 -58 34q0 52 127 58zM630 1406l104 -34l196 34h47l34 -23l-81 -300q-115 -150 -127 -334q-69 0 -127 -220q-40 -28 -138 -311q-29 -12 -81 -219h-23l-346 34l-46 -11q-46 0 -58 92q12 81 35 81h11v-23h12q0 80 34 80h58q0 47 81 81 q0 35 92 35q75 69 139 69q0 69 57 69l23 70v11l-46 23q-75 -86 -219 -185h-81l-23 24v11q12 52 173 323q41 196 127 335l12 35l-12 11v12q23 127 104 196zM284 1279h23v-11q-104 -92 -104 -150l-138 -139h-23l-35 24q0 230 81 230l35 12l11 -12h12q86 0 138 46zM607 1026 v-12l23 -23h70q0 69 115 69q0 58 92 58l23 58h-11q-150 0 -231 -70q-35 0 -81 -80zM573 899l11 -35h35v69l-12 58q-34 -6 -34 -92zM526 714l-11 -46l11 -58h12l23 23l-23 81h-12zM930 460q41 0 81 -35l-23 -138l46 -254l-138 -34h-35l-46 11l-92 -23q-197 12 -197 46v23 q47 46 266 139q81 46 81 184q34 81 57 81zM564 -155l23 -23l58 11q58 0 58 -23l115 12h208l69 -12l69 23l12 -11v-92l-23 -23h-12l-81 11l-104 -11h-34l-208 11l-150 -23l-11 12v11l-174 -11h-57l-46 11l-47 -11h-103q-150 0 -150 34v35q0 23 115 46l58 -12l11 12h12l69 -23 h46v11h-46v23h12z" />
<glyph unicode="{" horiz-adv-x="236" d="M250 1728l23 -23v-91q0 -23 -34 -23l-11 11h-12l-68 -11l11 -46q0 -57 -137 -57l-23 23q0 114 69 114q0 57 148 69zM125 1419h11v-91l12 -92l-12 -45l12 -160l-12 -57l12 -126v-160l11 -69l-11 -57v-46l11 -68l-23 -92l12 -137l-12 -299q6 -80 23 -80l103 12l11 -12v-91 q0 -35 -114 -35q-149 0 -149 35l46 103v11h-11l-12 -11h-11l-12 11l12 57l-23 208l23 80l-12 57l12 11v12l-12 34l12 126v45q0 23 57 23v35l-23 68q-46 0 -46 23v23l12 114l-12 46l12 69l-12 91l58 23v11q-58 0 -58 92l-11 11l23 23l-12 80v137h23v-34h23q0 34 69 91z M159 -206v-22h23l57 11v11h-80z" />
<glyph unicode="|" horiz-adv-x="342" d="M381 1735h11v-23l-11 -12l22 -79l-45 -23l-80 11l-148 -11l-45 11l-46 -11h-45l-23 23v57q0 17 68 34l57 -12q216 12 285 35zM91 1486h35q85 0 91 -34v-205h-23v23h-46q-57 0 -57 -23l35 -91h68v34h23v-11l11 -159l-23 -228l23 -91l-11 -11h-12l23 -285l-11 -68l11 -57 l-23 -284l12 -57l-69 -23q-113 0 -113 182l-12 137l12 34l-12 57q0 22 46 22v12l-34 45l11 34l-23 205v80q0 182 34 182h114v79l11 12v11q-182 17 -182 46q35 119 35 205v22l-12 103q51 102 68 102zM91 405v-11l80 -12v23h-80zM137 314l23 -23h11v23h-34zM341 -145h11 l35 -34q-29 -108 -57 -114h-12l-113 11l-57 -11l-91 11l-69 -11l-11 11v103l23 23l79 -80q69 57 239 68z" />
<glyph unicode="}" horiz-adv-x="260" d="M151 1734h11q29 0 34 -114l-11 -12v-11l11 -57l-11 -92l11 -11h12l-23 -217l23 -115l-23 -68v-92l11 -114l-11 -91l11 -81l-11 -45l11 -35l-11 -102v-35l11 -91l-11 -69l11 -274l-11 -69l11 -68l-11 -160h-11l-138 -12q-91 6 -91 35v45q6 35 91 35h35v34h-12l12 69 l-23 377q23 0 23 34l-23 137q17 57 34 57h57v35l-91 45l11 172v57l-11 46l23 68l-12 103v69q0 23 57 23v11l-34 46q12 45 46 45v12q-69 0 -69 183v11l12 12v11l-23 114l11 12l-68 11l-35 -11l-11 11v115h23l23 -23q137 11 160 34z" />
<glyph unicode="&#xa0;" horiz-adv-x="1416" d="M759 1692h12v23l46 -11h12l11 11l151 -23h23l23 23l232 -11q173 0 173 -93l-46 -35l-162 24l-58 -12l-12 12l-104 -24l-370 24v-12h-24l-11 12l-47 -12l-81 12l-324 -24l-162 24h-70l-23 23v69l12 12q31 -23 150 -35q93 21 93 46q165 0 209 -46h23q0 58 312 58zM365 -251 q-35 0 -35 -23l-128 12l-58 -12q-208 16 -208 46v35l12 12l-12 11v23l35 12l243 -23l197 11l69 -11l47 23l46 -12h93l69 12l301 -35l24 23h11l46 -11l47 11h35q243 0 243 -34v-81l-23 -24h-12l-93 47q-38 0 -81 -35h-11l-35 23h-23q-23 -23 -151 -35l-92 24l-70 -12l-208 58 v-23q0 -58 -128 -58q0 38 -150 46z" />
<glyph unicode="&#xa2;" horiz-adv-x="917" d="M620 1736h34l80 -69h12q57 69 183 69l11 -11v-92q0 -17 -46 -34l-103 11l-11 -11h-11q-92 0 -92 57h-11q0 -46 -81 -46l-68 -11l-492 23l-35 -12l-11 12v57q0 23 126 46l80 -12h137l103 12l80 -12zM423 1481h23l23 -23v-23q-6 -34 -115 -57v-35h-23v103q6 35 92 35z M457 1355h12v-12q-40 -80 -58 -80h-11l-34 35zM743 1263q35 0 57 -251v-81q0 -62 -45 -80h-46q-23 275 -206 309l-46 23q-126 0 -126 -252q35 0 46 -114l-34 -194q0 -275 103 -275l34 -23l57 11q12 -34 69 -34q0 46 57 80l23 -23q34 138 80 138l23 -23q0 -63 -195 -241 l-80 12l-91 -34q-166 68 -218 68q-74 0 -183 298l-23 160q46 389 195 389q177 114 229 114h11l69 -11l11 11h12l114 -45h46q23 0 46 68h11zM125 954q0 -28 -57 -68q46 -63 46 -103h11q29 68 126 68q0 58 57 58v45h-183zM45 668l23 -114h12l11 57q-6 57 -34 57h-12zM343 188 h68q35 -6 35 -92v-57l-35 -34h-45l-23 23q0 22 45 22l12 12v46q0 57 -57 57v23zM537 -137q23 -68 57 -80l91 57h81l80 -11l34 34q57 -17 57 -34v-80l-23 -23l-45 11l-172 -23l-34 12l-12 -12h-11l-46 12l-69 -12l-80 12l-46 -23l-57 23l-46 -12l-91 12l-126 -23 q0 23 -103 34v58q0 22 114 34v11l115 -11h240q52 34 92 34z" />
<glyph unicode="&#xa6;" horiz-adv-x="336" d="M130 1725l56 -23l68 12l56 -23l46 11v-112h-12l-67 11l-136 -34q-158 6 -158 34v56q0 17 147 68zM79 1530h12l45 -34h11l34 23l34 -34v-23q0 -22 -57 -22q0 -45 -56 -68q0 -45 -57 -45v-11l12 -34h-12q-16 0 -33 45l11 56l-11 124zM215 1327l22 -34q-33 -51 -33 -102 l22 -45l-11 -101v-12l11 -56q-17 0 -45 -79l-124 -12l-34 34l11 57v34l-34 90q51 79 136 124q0 45 34 45zM57 627h124q28 0 56 -147l-33 -79l11 -124l-11 -34l22 -113q-6 -85 -45 -124l-57 11h-79l-22 23v11q34 45 34 113q-45 147 -45 248q17 68 56 68v11q-45 0 -45 34v68z M307 -150h12l34 -34v-90l-23 -23l-90 23l-91 -23h-146l-23 23v79l23 22h33l23 -22q248 11 248 45z" />
<glyph unicode="&#xa7;" horiz-adv-x="986" d="M221 1724h69l162 -35l12 12v11l46 -11l104 11l151 -11l104 23l57 -23l70 23h11v-116l-115 -11h-197l-58 -12l-69 12h-104l-46 11l-58 -34l-128 23l-69 -12l-58 12l-58 -23q-69 29 -69 46v46q0 35 127 35h81zM507 1455q255 -41 255 -150v-12l-116 -104h-23 q-104 116 -220 116l-46 -35v-81q0 -35 70 -35q0 -34 23 -34l23 23h11q58 -81 162 -116q174 -133 174 -162l-12 -58l70 -92q-18 -226 -81 -255h-70l-104 174q-63 98 -266 208l-139 162q-23 81 -46 81l-23 -151q0 -121 243 -254l23 -46h35q86 0 173 -185l81 -93h12q23 0 23 35 l11 11h24l23 -23q0 -86 -220 -219l-70 -81h-289l-34 -24h-12q-58 0 -69 35l57 23v23q-46 0 -46 35v23q6 23 116 58l11 12h12l127 -116h12q115 0 115 92q-80 0 -219 174q-133 0 -278 231h-11l11 81v12l-11 69q34 87 46 208q35 0 35 93q98 93 150 231l11 12h35v-58h23l12 81 h11l197 23v12l-23 34zM635 1351v-12l69 -11v23h-69zM346 32v-23l-128 -11l-11 11v12l11 11h128zM996 -145l11 -11v-104q-11 -35 -69 -35l-127 12l-104 -12l-58 23l-116 -11l-46 11l-35 -11l-34 11l-347 -23q-93 12 -93 35v81l12 11v12l57 -12l58 12q0 -29 58 -35l116 35 l58 -12h46l58 12l150 -23l12 11l34 -11l243 11h23z" />
<glyph unicode="&#xad;" d="M187 1731h46q67 0 67 -79q42 57 68 57l46 -23l57 23l170 -23l22 23h34v-80q0 -33 -125 -33l-34 10l-67 -10h-12l-56 10l-69 -10h-34l-57 10l-67 -10h-182q-23 0 -23 33l12 11v12l-12 34l91 23l91 -12h11q0 34 23 34zM368 835h35q59 -79 125 -79l34 -114q0 -65 -125 -79 h-23l-114 22l-67 -11l-115 11h-10l-91 -22l-12 11v158q0 48 216 80l46 -34q49 0 101 57zM471 732v-10l11 -12l-11 -57v-22h22l12 57v44h-34zM321 -144l273 -11l11 11h11q68 -15 68 -34v-79l-22 -22h-46l-91 10l-67 -10l-46 10l-283 -22l-57 12l-11 -12h-12q-71 23 -79 57v11 q15 52 226 68l46 -23z" />
<glyph unicode="&#xb1;" horiz-adv-x="1026" d="M1015 1731h12l22 -23v-91l-22 -23l-92 11l-240 -11l-91 11l-91 -11l-69 11l-137 -22l-57 22l-80 -11l-11 11h-12l-11 -11h-12l-148 11v103l80 12l80 -12l91 12l206 -23l308 11h160l80 -11zM399 1377l182 -57l23 -34l-23 -183l23 -103l11 12h46q80 0 80 -58l12 12h11 l46 -12l68 46h12l11 -11h11l-34 -183l-103 -11l-102 22l-92 -11l12 -114v-183l11 -57l-183 -34h-45q-29 0 -35 45l-11 160l11 149l-11 11l-114 -11h-160q-46 0 -46 160v22q0 18 80 46l240 -11v57q17 228 69 262v23l-58 -11v11q6 23 58 46zM433 1331v-23h45l-22 23h-23z M581 372l240 -11l57 11q34 -28 46 -171q-40 -40 -217 -92q-57 35 -114 35h-35q-40 -35 -80 -35q-125 58 -296 58l-92 -35h-23q0 35 -34 35q0 171 46 171l80 23h80l34 -23l46 23l125 -23zM444 -156l23 -22h183l182 11l58 -23q80 0 125 34l23 -22v-80l-23 -23l-45 11l-69 -23 l-103 12l-45 -12l-126 12h-69l-45 -12l-137 23l-149 -34l-80 34l-80 -11h-68l-23 23v45q0 35 126 35h217z" />
<glyph unicode="&#xb6;" horiz-adv-x="914" d="M13 1731l69 -23h160l183 -11l80 34h23l80 -69q85 35 320 58l11 -12v-103h-103l-45 -11l-46 11h-34l-58 -11l-34 11l-217 -11h-46l-45 11l-46 -11h-46l-160 11l-69 -23l-11 12v114q0 23 34 23zM825 1457l23 -35q0 -57 -35 -68h-11l-57 11q-17 -46 -80 -46v-137l23 -91 l-23 -480l23 -92q-46 -228 -80 -228l-57 -12l-12 12v103l23 171q-11 80 -34 80l-195 -57h-34q-69 57 -240 137q-29 29 -46 137l12 69l-23 57q40 251 91 251q69 115 240 115q0 46 492 103zM242 279q0 -85 194 -114q0 -34 57 -34l23 23h12v-12q-132 -109 -217 -126h-46 q-80 0 -149 138q6 57 57 57zM631 245v-11l-58 -58l-22 23q51 46 80 46zM362 -151h45q23 0 23 -46l57 23l35 -12l194 35l23 -23l183 23l11 -12v-103l-23 -23l-57 23l-137 -34l-217 34l-286 -34l-80 23l-149 -12l-11 12v68q0 29 194 46l69 -23h46q40 0 80 35z" />
<glyph unicode="&#xb7;" horiz-adv-x="551" d="M87 1734l46 -12l34 12l159 -34q51 22 159 22l11 -11h12l45 11q34 -5 34 -91v-11l-22 -23l-34 12l-35 -12l-181 12l-125 -12l-159 12l-69 -12l-11 12v56q0 18 136 57v12zM261 886q170 -96 170 -227q-74 -125 -125 -159h-102q-40 34 -159 57l-34 136h23q0 -34 22 -34 q0 57 91 57h68v34q-56 0 -56 22v12l22 34q-57 0 -57 23zM93 -152l80 -12l34 12v-34h-23v-12q0 -34 46 -34l91 57l68 -11l68 11l91 -11l23 22h11l23 -22v-91l-12 -12v-11l-56 11h-91l-171 -11l-23 23h-79v11l11 11v12h-11l-34 -34l-171 -12l-11 12v68q0 17 136 57z" />
<glyph unicode="&#x2000;" horiz-adv-x="871" />
<glyph unicode="&#x2001;" horiz-adv-x="1743" />
<glyph unicode="&#x2002;" horiz-adv-x="871" />
<glyph unicode="&#x2003;" horiz-adv-x="1743" />
<glyph unicode="&#x2004;" horiz-adv-x="581" />
<glyph unicode="&#x2005;" horiz-adv-x="435" />
<glyph unicode="&#x2006;" horiz-adv-x="290" />
<glyph unicode="&#x2007;" horiz-adv-x="290" />
<glyph unicode="&#x2008;" horiz-adv-x="217" />
<glyph unicode="&#x2009;" horiz-adv-x="348" />
<glyph unicode="&#x200a;" horiz-adv-x="96" />
<glyph unicode="&#x2010;" d="M187 1731h46q67 0 67 -79q42 57 68 57l46 -23l57 23l170 -23l22 23h34v-80q0 -33 -125 -33l-34 10l-67 -10h-12l-56 10l-69 -10h-34l-57 10l-67 -10h-182q-23 0 -23 33l12 11v12l-12 34l91 23l91 -12h11q0 34 23 34zM368 835h35q59 -79 125 -79l34 -114q0 -65 -125 -79 h-23l-114 22l-67 -11l-115 11h-10l-91 -22l-12 11v158q0 48 216 80l46 -34q49 0 101 57zM471 732v-10l11 -12l-11 -57v-22h22l12 57v44h-34zM321 -144l273 -11l11 11h11q68 -15 68 -34v-79l-22 -22h-46l-91 10l-67 -10l-46 10l-283 -22l-57 12l-11 -12h-12q-71 23 -79 57v11 q15 52 226 68l46 -23z" />
<glyph unicode="&#x2011;" d="M187 1731h46q67 0 67 -79q42 57 68 57l46 -23l57 23l170 -23l22 23h34v-80q0 -33 -125 -33l-34 10l-67 -10h-12l-56 10l-69 -10h-34l-57 10l-67 -10h-182q-23 0 -23 33l12 11v12l-12 34l91 23l91 -12h11q0 34 23 34zM368 835h35q59 -79 125 -79l34 -114q0 -65 -125 -79 h-23l-114 22l-67 -11l-115 11h-10l-91 -22l-12 11v158q0 48 216 80l46 -34q49 0 101 57zM471 732v-10l11 -12l-11 -57v-22h22l12 57v44h-34zM321 -144l273 -11l11 11h11q68 -15 68 -34v-79l-22 -22h-46l-91 10l-67 -10l-46 10l-283 -22l-57 12l-11 -12h-12q-71 23 -79 57v11 q15 52 226 68l46 -23z" />
<glyph unicode="&#x2012;" d="M187 1731h46q67 0 67 -79q42 57 68 57l46 -23l57 23l170 -23l22 23h34v-80q0 -33 -125 -33l-34 10l-67 -10h-12l-56 10l-69 -10h-34l-57 10l-67 -10h-182q-23 0 -23 33l12 11v12l-12 34l91 23l91 -12h11q0 34 23 34zM368 835h35q59 -79 125 -79l34 -114q0 -65 -125 -79 h-23l-114 22l-67 -11l-115 11h-10l-91 -22l-12 11v158q0 48 216 80l46 -34q49 0 101 57zM471 732v-10l11 -12l-11 -57v-22h22l12 57v44h-34zM321 -144l273 -11l11 11h11q68 -15 68 -34v-79l-22 -22h-46l-91 10l-67 -10l-46 10l-283 -22l-57 12l-11 -12h-12q-71 23 -79 57v11 q15 52 226 68l46 -23z" />
<glyph unicode="&#x2013;" horiz-adv-x="963" d="M276 1731h64q95 0 95 -79q59 57 96 57l64 -23l81 23l239 -23l31 23h48v-80q0 -33 -176 -33l-48 10l-94 -10h-17l-79 10l-97 -10h-48l-80 10l-95 -10h-256q-33 0 -33 33l17 11v12l-17 34l129 23l128 -12h15q0 34 33 34zM531 835h49q83 -79 176 -79l48 -114q0 -65 -176 -79 h-33l-160 22l-95 -11l-162 11h-14l-128 -22l-17 11v158q0 48 305 80l64 -34q69 0 143 57zM676 732v-10l15 -12l-15 -57v-22h31l17 57v44h-48zM464 -144l385 -11l15 11h16q96 -15 96 -34v-79l-31 -22h-65l-128 10l-95 -10l-64 10l-399 -22l-80 12l-16 -12h-17 q-100 23 -111 57v11q21 52 318 68l65 -23z" />
<glyph unicode="&#x2014;" horiz-adv-x="1987" d="M581 1731h130q189 0 189 -79q118 57 191 57l130 -23l160 23l479 -23l62 23h96v-80q0 -33 -352 -33l-96 10l-189 -10h-33l-158 10l-195 -10h-95l-161 10l-189 -10h-512q-65 0 -65 33l34 11v12l-34 34l256 23l257 -12h31q0 34 64 34zM1091 835h99q166 -79 352 -79l96 -114 q0 -65 -352 -79h-65l-321 22l-189 -11l-324 11h-28l-257 -22l-33 11v158q0 48 608 80l130 -34q138 0 284 57zM1381 732v-10l31 -12l-31 -57v-22h62l34 57v44h-96zM959 -144l769 -11l31 11h31q191 -15 191 -34v-79l-62 -22h-129l-257 10l-188 -10l-130 10l-797 -22l-161 12 l-31 -12h-33q-200 23 -223 57v11q42 52 637 68l129 -23z" />
<glyph unicode="&#x202f;" horiz-adv-x="348" />
<glyph unicode="&#x205f;" horiz-adv-x="435" />
<glyph unicode="&#x20ac;" horiz-adv-x="1135" d="M848 1737l22 -23h137l34 -22h57l45 34l23 -23v-80q0 -34 -80 -34v-11l-79 11h-91l-46 -11l-45 23l-125 -23l-80 23v11q0 23 80 23q0 17 79 34v11l-11 12h-79v22zM291 1726h11l114 -12l102 12l46 -91l22 -23l-113 -23l-12 12l-136 -23l-34 23l-57 -12l-193 12l-46 -12 l-11 12v68q0 28 148 45h34l34 -22h68q0 34 23 34zM822 1437q193 -108 193 -159l11 -57v-34q0 -57 -34 -68q-56 28 -56 91v34q-114 68 -285 68q-51 0 -113 -409l45 -34q80 0 125 22q171 -28 171 -45q0 -102 -171 -102l-79 11l-46 -11l-57 22v-102q69 0 69 -57h11q0 46 23 46 h34l45 -34l103 57h22v-12q-68 -136 -102 -148l-193 12v-34l11 -34l-11 -57v-34q57 -205 204 -205q40 -45 91 -45h12q102 0 113 182q0 45 23 45t23 -34l-12 -114l12 -68l-125 -102h-91l-137 -23q0 29 -56 34l-114 -11q0 17 -159 91q0 57 -102 102l-23 45l68 12v11 q-34 0 -57 46v11l23 34v11h-80q-28 0 -45 148q-102 0 -102 34q0 17 113 68v23q0 114 -68 114q-34 0 -34 23v22q0 17 68 34l34 -11v11q12 205 69 205l-12 34q23 91 46 91l22 -23v46l-11 56q148 103 182 103l11 -12l68 69h12q22 0 22 -35q296 23 296 46zM484 -146l102 -34 l114 23l114 -23l68 23h11l34 -23h12q56 0 68 34q62 0 159 -102v-11l-23 -23h-79l-194 11l-193 -11l-273 11l-125 -22l-56 11l-114 -11l-45 11l-57 -11l-23 22v91l23 23h11q34 0 34 -68h34l57 34l11 -11q290 34 330 56z" />
<glyph unicode="&#x2122;" horiz-adv-x="1616" d="M1563 1737q91 -12 91 -46v-68l-23 -23h-114l-45 -11l-137 23l-56 -12h-216l-69 -11l-56 23l-57 -12h-57l-57 12l-34 -34l-136 22l-57 -11l-68 11l-68 -22q0 22 -35 22l-68 -11l-91 11l-11 -11h-11l-34 11l-80 -11q-114 11 -114 34v45q0 35 114 35l34 11v11l57 -11h79 l69 11l91 -22h170l45 11l46 -11l250 22q68 -39 68 -68h23q34 40 227 68l46 -22l170 22l45 -11zM85 1464h23l23 -23v-23q-63 -238 -114 -238h-23v11l23 91h-11q-34 0 -34 114zM165 1464h23q51 0 125 -46l91 12l11 -12v-125q0 -22 -91 -22q-45 -34 -45 -91l11 -12h125v-11 l-23 -102v-46l12 -56l-80 -57q45 -63 45 -103h23v35h23l68 -91l-23 -34h-22v11l-114 -11h-45l-171 11v23q0 28 46 34v68q45 40 45 193h-11q-34 0 -34 34l11 57l-11 102v12l22 91zM1188 1464h68l125 -23l79 12l23 -35q0 -22 -45 -22q0 -57 -80 -80l-11 -57v-45l22 -23 q0 23 46 23v23h34l-11 -57l11 -91l-23 -68v-91q0 -154 91 -216v-11l-23 -23l-56 23l-125 -12l-69 23l-113 -11l-12 11v11q52 0 80 182v11q0 86 -34 160l45 215q-68 86 -68 125zM517 1453l80 -35q-12 -90 -46 -90h-45q-17 0 -68 90v12zM960 1453l125 -273h34q12 68 35 68 l11 -11v-23q-34 -51 -34 -102l11 -12q0 -96 -102 -272l-11 -46l11 -34l-11 -80h-35q-215 466 -227 671l-34 45v12h46zM585 1293l23 -34q0 -62 -45 -79q-29 0 -34 91l11 11h11l12 -11zM756 1146h11q51 -23 80 -296l-12 -45q34 0 69 -57v-34q0 -28 -160 -34l-11 11h-11 l-46 -11l-11 11v12q102 51 136 102l-11 11v12l23 79h-12q-22 0 -45 239zM798 -140q23 -68 57 -79l159 57l137 -23l34 34h11l45 -11l46 11l114 -23l90 23l80 -23l68 12l12 -12v-91l-12 -11v-11l-57 11l-91 -11l-79 22l-159 -22l-12 11l-34 -11l-306 11l-103 -11l-11 11h-11 l-103 -11l-250 11l-11 -11l-57 11h-23l-193 -23l-68 23h-102l-23 23v34q0 34 170 68q74 0 137 -57h11l80 46h11l102 -23q114 0 205 34l57 -11z" />
<glyph unicode="&#xe000;" horiz-adv-x="1730" d="M0 1730h1730v-1730h-1730v1730z" />
</font>
</defs>
</svg>
